<svg xmlns="http://www.w3.org/2000/svg" viewBox="0 0 754.765 182.804"><g id="Layer_2" data-name="Layer 2"><g id="Layer_1-2" data-name="Layer 1"><path d="M7.9,19.146H27.851V76.053q0,12.186,4.284,18.076t14.327,5.892q10.042,0,14.261-5.892T64.94,76.053V19.146H84.891V76.053a57.365,57.365,0,0,1-2.678,18.612,33.4,33.4,0,0,1-7.632,12.787,29.683,29.683,0,0,1-12.118,7.364,51.8,51.8,0,0,1-16.135,2.344,50.9,50.9,0,0,1-16.268-2.41,30.274,30.274,0,0,1-12.118-7.432,31.984,31.984,0,0,1-7.5-12.922A61.411,61.411,0,0,1,7.9,75.651Z" transform="translate(-7.899 -16.736)" fill="#21006b"/><path d="M145.144,117.16A49.823,49.823,0,0,1,126,113.678a38.937,38.937,0,0,1-14.327-10.041,45.016,45.016,0,0,1-9.038-15.8,64.577,64.577,0,0,1-3.147-20.888,64.57,64.57,0,0,1,3.147-20.887,44.5,44.5,0,0,1,9.105-15.8A39.583,39.583,0,0,1,126.13,20.218a49.433,49.433,0,0,1,19.014-3.482,49.81,49.81,0,0,1,19.147,3.482,38.354,38.354,0,0,1,14.26,10.042,44.82,44.82,0,0,1,8.9,15.8,65.871,65.871,0,0,1,3.08,20.887,67.209,67.209,0,0,1-3.013,20.888,44,44,0,0,1-8.836,15.8,38.329,38.329,0,0,1-14.261,10.041A50.2,50.2,0,0,1,145.144,117.16Zm-.134-17.139q12.584,0,18.746-8.57t6.159-24.5q0-15.8-6.159-24.436T145.01,33.875q-12.588,0-18.745,8.637T120.1,66.948q0,15.936,6.161,24.5T145.01,100.021Z" transform="translate(-7.899 -16.736)" fill="#21006b"/><path d="M224.679,36.42H195.891V19.146h77.661V36.42H244.764v78.33H224.679Z" transform="translate(-7.899 -16.736)" fill="#21006b"/><path d="M206.668,199.54h19.065C714.894,101.389,709.377,43.21,375.377,26.319h0C708.136,43.772,705.528,101.37,206.668,199.54Z" transform="translate(-7.899 -16.736)" fill="#b91797"/><path d="M644.466,199.54h15.477C873.684,101.925,742.32,27.164,372.987,26.32,741.082,27.728,867.905,101.905,644.466,199.54Z" transform="translate(-7.899 -16.736)" fill="#b91797"/><path d="M620.424,52.857l2.611-.341q7.452,2.13,13.873,4.415l-3.069.374Q627.667,55,620.424,52.857Z" transform="translate(-7.899 -16.736)" fill="#b91797"/><path d="M656.789,108.28l8.382.208a102.709,102.709,0,0,1-16.861,13.674l-9.139-.521A115.352,115.352,0,0,0,656.789,108.28Z" transform="translate(-7.899 -16.736)" fill="#b91797"/><path d="M570.784,41.933l1.616-.257q8.205,1.332,15.766,2.766l-1.723.306C581.437,43.775,576.228,42.835,570.784,41.933Z" transform="translate(-7.899 -16.736)" fill="#b91797"/><path d="M595.743,46.65l1.96-.31q8.943,1.872,16.891,3.9l-2.352.335Q604.51,48.535,595.743,46.65Z" transform="translate(-7.899 -16.736)" fill="#b91797"/><path d="M659.19,70.788l4.666-.355a32.057,32.057,0,0,1,8.876,9.735l-5.8.271A27.372,27.372,0,0,0,659.19,70.788Z" transform="translate(-7.899 -16.736)" fill="#b91797"/><path d="M641.292,60.311l3.416-.375a107.922,107.922,0,0,1,11.765,5.674l-4.086.373A94.072,94.072,0,0,0,641.292,60.311Z" transform="translate(-7.899 -16.736)" fill="#b91797"/><path d="M372.987,26.32c77.526,1.921,141.369,6.654,190.08,13.907l-1.426.253C513.7,33.179,450.34,28.368,372.987,26.32Z" transform="translate(-7.899 -16.736)" fill="#b91797"/><path d="M565.848,156.029l12.759.273q-18.279,7.193-40.168,14.7h-15Q546.546,163.352,565.848,156.029Z" transform="translate(-7.899 -16.736)" fill="#b91797"/><path d="M625.324,129.706l9.606.65q-14.2,8.008-33.589,16.521l-11.9-.256Q610.163,137.9,625.324,129.706Z" transform="translate(-7.899 -16.736)" fill="#b91797"/><path d="M507.068,181.312q-28.227,8.919-61.431,18.228H427.769q34.158-9.309,63.251-18.228Z" transform="translate(-7.899 -16.736)" fill="#b91797"/><path d="M668.423,87.263l6.54-.216c.484,4.459-.785,9.132-3.858,14.011L663.284,101C666.746,96.218,668.439,91.638,668.423,87.263Z" transform="translate(-7.899 -16.736)" fill="#b91797"/><path d="M282.837,101.847q.728,4.55,3.609,6.581t8.583,2.032a15.235,15.235,0,0,0,4.762-.636,8.367,8.367,0,0,0,3.063-1.695,5.954,5.954,0,0,0,1.638-2.483,9.245,9.245,0,0,0,.485-3,9.848,9.848,0,0,0-.3-2.453,5.059,5.059,0,0,0-1.183-2.15,7.558,7.558,0,0,0-2.427-1.695,15.906,15.906,0,0,0-3.972-1.152l-5.459-.968a32.483,32.483,0,0,1-5.7-1.454,14.2,14.2,0,0,1-4.216-2.332,8.956,8.956,0,0,1-2.609-3.543,13.439,13.439,0,0,1-.879-5.149,10.559,10.559,0,0,1,1.244-5.208,11.292,11.292,0,0,1,3.366-3.755,14.71,14.71,0,0,1,5.035-2.241,25.965,25.965,0,0,1,6.308-.728,23.473,23.473,0,0,1,7.188.941,13.492,13.492,0,0,1,4.7,2.517,10.734,10.734,0,0,1,2.76,3.609,21.134,21.134,0,0,1,1.425,4.155l-5.216,1.031a15.292,15.292,0,0,0-1.244-3.245,7.134,7.134,0,0,0-2-2.365,8.787,8.787,0,0,0-3.064-1.426,17.433,17.433,0,0,0-4.427-.485,19.233,19.233,0,0,0-4.975.545,9.141,9.141,0,0,0-3.215,1.482,5.257,5.257,0,0,0-1.728,2.238,7.4,7.4,0,0,0-.516,2.753,8.658,8.658,0,0,0,.395,2.753A4.68,4.68,0,0,0,285.6,86.35a8.146,8.146,0,0,0,2.457,1.452,20.537,20.537,0,0,0,3.76,1.028l6.066,1.094q6.734,1.275,9.888,4.222t3.154,8.654a12,12,0,0,1-1,4.889,11.131,11.131,0,0,1-2.979,3.98,14.292,14.292,0,0,1-4.952,2.673,22.632,22.632,0,0,1-6.987.97,29.487,29.487,0,0,1-6.958-.76,15.634,15.634,0,0,1-5.439-2.407,12.357,12.357,0,0,1-3.707-4.2,15.337,15.337,0,0,1-1.7-6.093Z" transform="translate(-7.899 -16.736)" fill="#21006b"/><path d="M332.03,115.191a16.568,16.568,0,0,1-6.369-1.152,13.067,13.067,0,0,1-4.731-3.275,14.322,14.322,0,0,1-2.973-5.217,21.8,21.8,0,0,1-1.031-6.915,20.67,20.67,0,0,1,1.092-6.915,15.189,15.189,0,0,1,3.093-5.278,13.6,13.6,0,0,1,4.823-3.366,16.091,16.091,0,0,1,6.278-1.182,16.407,16.407,0,0,1,6.309,1.152,13.214,13.214,0,0,1,4.761,3.306,14.462,14.462,0,0,1,3,5.186,23.381,23.381,0,0,1-.03,13.83,15.078,15.078,0,0,1-3.032,5.278,13.26,13.26,0,0,1-4.823,3.366A16.486,16.486,0,0,1,332.03,115.191Zm.061-4.367a9.562,9.562,0,0,0,4.34-.91,8.1,8.1,0,0,0,2.983-2.548,11.026,11.026,0,0,0,1.718-3.912,21.6,21.6,0,0,0,.543-5,20.933,20.933,0,0,0-.543-4.913,10.731,10.731,0,0,0-1.718-3.852,8.218,8.218,0,0,0-2.983-2.517,9.576,9.576,0,0,0-4.34-.91,9.375,9.375,0,0,0-4.31.91,8.271,8.271,0,0,0-2.953,2.517,10.732,10.732,0,0,0-1.719,3.852,23.09,23.09,0,0,0,0,9.947,11.352,11.352,0,0,0,1.689,3.882,7.837,7.837,0,0,0,2.953,2.548A9.551,9.551,0,0,0,332.091,110.824Z" transform="translate(-7.899 -16.736)" fill="#21006b"/><path d="M354.534,70.911h5.277v43.31h-5.277Z" transform="translate(-7.899 -16.736)" fill="#21006b"/><path d="M367.878,82.861h5.276v19.775q0,4.367,1.426,6.186t4.641,1.821a9.333,9.333,0,0,0,6.369-2.548,10.147,10.147,0,0,0,2.305-2.821,8.211,8.211,0,0,0,.788-3.852V82.861h5.277v31.36h-5.216v-4.853a15.264,15.264,0,0,1-4.974,4.428,12.248,12.248,0,0,1-5.763,1.395q-5.339,0-7.734-2.88t-2.4-8.644Z" transform="translate(-7.899 -16.736)" fill="#21006b"/><path d="M403.907,87.046h-4.852V82.861h4.852V74.309h5.278v8.552h8.31v4.185h-8.31v18.38a6.07,6.07,0,0,0,1.031,3.7,3.661,3.661,0,0,0,3.154,1.395,13.226,13.226,0,0,0,2.335-.182,11.67,11.67,0,0,0,1.851-.485l.909,4.064a18.476,18.476,0,0,1-2.638.7,18.133,18.133,0,0,1-3.367.273,10.007,10.007,0,0,1-4.307-.788,6.407,6.407,0,0,1-2.608-2.245,8.719,8.719,0,0,1-1.3-3.458,26.66,26.66,0,0,1-.334-4.367Z" transform="translate(-7.899 -16.736)" fill="#21006b"/><path d="M423.074,70.911h5.642v6.127h-5.642Zm.183,11.95h5.276v31.36h-5.276Z" transform="translate(-7.899 -16.736)" fill="#21006b"/><path d="M450.855,115.191a16.568,16.568,0,0,1-6.369-1.152,13.067,13.067,0,0,1-4.731-3.275,14.322,14.322,0,0,1-2.973-5.217,21.8,21.8,0,0,1-1.031-6.915,20.67,20.67,0,0,1,1.092-6.915,15.191,15.191,0,0,1,3.094-5.278,13.585,13.585,0,0,1,4.822-3.366,16.1,16.1,0,0,1,6.278-1.182,16.407,16.407,0,0,1,6.309,1.152,13.214,13.214,0,0,1,4.761,3.306,14.462,14.462,0,0,1,3,5.186,23.36,23.36,0,0,1-.03,13.83,15.078,15.078,0,0,1-3.032,5.278,13.265,13.265,0,0,1-4.822,3.366A16.5,16.5,0,0,1,450.855,115.191Zm.061-4.367a9.559,9.559,0,0,0,4.34-.91,8.1,8.1,0,0,0,2.983-2.548,11.026,11.026,0,0,0,1.718-3.912,21.6,21.6,0,0,0,.543-5,20.933,20.933,0,0,0-.543-4.913,10.731,10.731,0,0,0-1.718-3.852,8.218,8.218,0,0,0-2.983-2.517,9.573,9.573,0,0,0-4.34-.91,9.377,9.377,0,0,0-4.31.91,8.28,8.28,0,0,0-2.953,2.517,10.714,10.714,0,0,0-1.718,3.852,23.09,23.09,0,0,0,0,9.947,11.331,11.331,0,0,0,1.688,3.882,7.837,7.837,0,0,0,2.953,2.548A9.554,9.554,0,0,0,450.916,110.824Z" transform="translate(-7.899 -16.736)" fill="#21006b"/><path d="M473.237,82.861h5.217v4.792a13.991,13.991,0,0,1,5.1-4.428,13.474,13.474,0,0,1,5.884-1.334q5.335,0,7.915,2.911t2.578,8.552v20.867h-5.278V94.386q0-4.367-1.577-6.157a6.139,6.139,0,0,0-4.852-1.79,10.507,10.507,0,0,0-3.488.607,8.646,8.646,0,0,0-3.124,1.941,10.086,10.086,0,0,0-2.3,2.821,8.189,8.189,0,0,0-.789,3.852v18.561h-5.278Z" transform="translate(-7.899 -16.736)" fill="#21006b"/><path d="M511.209,105.062a6.116,6.116,0,0,0,2.76,4.58,11.875,11.875,0,0,0,6.035,1.3q4,0,5.672-1.364a4.435,4.435,0,0,0,1.668-3.609,6.888,6.888,0,0,0-.213-1.729,3.287,3.287,0,0,0-.819-1.456,5.269,5.269,0,0,0-1.7-1.122,12.366,12.366,0,0,0-2.851-.789l-4-.606a29.518,29.518,0,0,1-4.671-1.092,11.649,11.649,0,0,1-3.4-1.729,6.686,6.686,0,0,1-2.092-2.608,9.019,9.019,0,0,1-.7-3.731,7.873,7.873,0,0,1,.94-3.881,8.648,8.648,0,0,1,2.608-2.882,12.673,12.673,0,0,1,3.944-1.82,18.29,18.29,0,0,1,4.943-.636,20.464,20.464,0,0,1,5.671.667,10.886,10.886,0,0,1,3.73,1.819,8.062,8.062,0,0,1,2.245,2.73,15.7,15.7,0,0,1,1.213,3.336l-4.792.788a12.962,12.962,0,0,0-.97-2.244,4.844,4.844,0,0,0-1.456-1.607,6.751,6.751,0,0,0-2.214-.971,13.422,13.422,0,0,0-3.245-.333,14.227,14.227,0,0,0-3.64.394,6.793,6.793,0,0,0-2.335,1.061,3.865,3.865,0,0,0-1.243,1.487,4.2,4.2,0,0,0-.364,1.728,5.666,5.666,0,0,0,.243,1.73,2.915,2.915,0,0,0,.909,1.334,5.883,5.883,0,0,0,1.82,1,16.7,16.7,0,0,0,2.972.727l4.55.729q5.517.909,7.915,3.154t2.4,6.551a8.479,8.479,0,0,1-.789,3.67,8.09,8.09,0,0,1-2.365,2.911,11.6,11.6,0,0,1-3.942,1.941,19.644,19.644,0,0,1-5.521.7,24.455,24.455,0,0,1-5.308-.545,13.665,13.665,0,0,1-4.337-1.729,9.15,9.15,0,0,1-3.032-3.124,10.488,10.488,0,0,1-1.335-4.731Z" transform="translate(-7.899 -16.736)" fill="#21006b"/></g></g></svg>