<svg xmlns="http://www.w3.org/2000/svg" viewBox="0 0 890.512 261.318"><g id="Layer_2" data-name="Layer 2"><g id="Layer_1-2" data-name="Layer 1"><path d="M68.868,19.146h19.95V76.053q0,12.186,4.285,18.076t14.327,5.892q10.042,0,14.26-5.892t4.218-18.076V19.146h19.951V76.053a57.357,57.357,0,0,1-2.678,18.612,33.4,33.4,0,0,1-7.632,12.787,29.683,29.683,0,0,1-12.118,7.364A51.8,51.8,0,0,1,107.3,117.16a50.9,50.9,0,0,1-16.268-2.41,30.274,30.274,0,0,1-12.118-7.432,31.951,31.951,0,0,1-7.5-12.921,61.391,61.391,0,0,1-2.544-18.746Z" transform="translate(-3.724 -16.736)" fill="#21006b"/><path d="M206.112,117.16a49.8,49.8,0,0,1-19.148-3.482,38.908,38.908,0,0,1-14.327-10.042,45.012,45.012,0,0,1-9.038-15.8,64.582,64.582,0,0,1-3.146-20.888A64.582,64.582,0,0,1,163.6,46.06a44.5,44.5,0,0,1,9.105-15.8A39.583,39.583,0,0,1,187.1,20.218a54.019,54.019,0,0,1,38.161,0,38.354,38.354,0,0,1,14.26,10.042,44.833,44.833,0,0,1,8.9,15.8,65.882,65.882,0,0,1,3.08,20.888,67.214,67.214,0,0,1-3.013,20.888,43.985,43.985,0,0,1-8.837,15.8,38.3,38.3,0,0,1-14.26,10.042A50.181,50.181,0,0,1,206.112,117.16Zm-.134-17.139q12.583,0,18.746-8.57t6.159-24.5q0-15.8-6.159-24.436t-18.746-8.637q-12.588,0-18.746,8.637t-6.159,24.436q0,15.936,6.159,24.5T205.978,100.021Z" transform="translate(-3.724 -16.736)" fill="#21006b"/><path d="M285.647,36.419H256.859V19.146H334.52V36.419H305.732V114.75H285.647Z" transform="translate(-3.724 -16.736)" fill="#21006b"/><path d="M267.636,199.54H286.7C775.862,101.389,770.345,43.21,436.344,26.319h0C769.1,43.772,766.5,101.37,267.636,199.54Z" transform="translate(-3.724 -16.736)" fill="#b91797"/><path d="M705.434,199.54h15.477c213.74-97.615,82.376-172.376-286.956-173.22C802.05,27.728,928.872,101.905,705.434,199.54Z" transform="translate(-3.724 -16.736)" fill="#b91797"/><path d="M681.391,52.857,684,52.516q7.451,2.13,13.873,4.415l-3.069.374Q688.635,55,681.391,52.857Z" transform="translate(-3.724 -16.736)" fill="#b91797"/><path d="M717.757,108.28l8.382.207a102.67,102.67,0,0,1-16.862,13.675l-9.139-.521A115.316,115.316,0,0,0,717.757,108.28Z" transform="translate(-3.724 -16.736)" fill="#b91797"/><path d="M631.752,41.933l1.616-.257q8.2,1.332,15.765,2.766l-1.722.3Q639.9,43.289,631.752,41.933Z" transform="translate(-3.724 -16.736)" fill="#b91797"/><path d="M656.711,46.65l1.96-.31q8.941,1.872,16.89,3.9l-2.351.336Q665.478,48.535,656.711,46.65Z" transform="translate(-3.724 -16.736)" fill="#b91797"/><path d="M720.157,70.788l4.667-.355a32.057,32.057,0,0,1,8.876,9.735l-5.8.271A27.376,27.376,0,0,0,720.157,70.788Z" transform="translate(-3.724 -16.736)" fill="#b91797"/><path d="M702.26,60.311l3.415-.375a107.942,107.942,0,0,1,11.766,5.674l-4.086.373A94.15,94.15,0,0,0,702.26,60.311Z" transform="translate(-3.724 -16.736)" fill="#b91797"/><path d="M433.955,26.32c77.525,1.921,141.369,6.654,190.08,13.907l-1.427.253C574.669,33.179,511.308,28.368,433.955,26.32Z" transform="translate(-3.724 -16.736)" fill="#b91797"/><path d="M626.816,156.029l12.759.273q-18.281,7.193-40.168,14.7h-15Q607.514,163.352,626.816,156.029Z" transform="translate(-3.724 -16.736)" fill="#b91797"/><path d="M686.292,129.706l9.606.65q-14.2,8.008-33.589,16.521l-11.9-.256Q671.13,137.9,686.292,129.706Z" transform="translate(-3.724 -16.736)" fill="#b91797"/><path d="M568.036,181.312q-28.227,8.919-61.431,18.228H488.737q34.156-9.309,63.25-18.228Z" transform="translate(-3.724 -16.736)" fill="#b91797"/><path d="M729.39,87.263l6.541-.217c.484,4.459-.785,9.133-3.859,14.012L724.251,101C727.713,96.218,729.407,91.638,729.39,87.263Z" transform="translate(-3.724 -16.736)" fill="#b91797"/><path d="M343.805,101.847q.728,4.55,3.609,6.581T356,110.46a15.264,15.264,0,0,0,4.761-.635,8.364,8.364,0,0,0,3.064-1.7,5.961,5.961,0,0,0,1.637-2.483,9.213,9.213,0,0,0,.485-3,9.842,9.842,0,0,0-.3-2.453,5.052,5.052,0,0,0-1.183-2.151,7.569,7.569,0,0,0-2.426-1.695,15.987,15.987,0,0,0-3.973-1.152l-5.459-.968a32.533,32.533,0,0,1-5.7-1.453,14.233,14.233,0,0,1-4.215-2.333,8.942,8.942,0,0,1-2.609-3.543,13.419,13.419,0,0,1-.88-5.149,10.559,10.559,0,0,1,1.244-5.208,11.306,11.306,0,0,1,3.367-3.755,14.723,14.723,0,0,1,5.034-2.241,25.972,25.972,0,0,1,6.308-.727,23.467,23.467,0,0,1,7.188.94,13.488,13.488,0,0,1,4.7,2.517,10.718,10.718,0,0,1,2.759,3.609,21.147,21.147,0,0,1,1.426,4.156l-5.217,1.031a15.3,15.3,0,0,0-1.243-3.245,7.13,7.13,0,0,0-2-2.366,8.755,8.755,0,0,0-3.063-1.425,17.392,17.392,0,0,0-4.428-.486,19.269,19.269,0,0,0-4.974.545,9.133,9.133,0,0,0-3.215,1.483,5.253,5.253,0,0,0-1.729,2.238,7.4,7.4,0,0,0-.515,2.752,8.666,8.666,0,0,0,.394,2.754,4.692,4.692,0,0,0,1.334,2.027,8.158,8.158,0,0,0,2.457,1.452,20.493,20.493,0,0,0,3.761,1.028l6.066,1.094q6.732,1.275,9.887,4.222t3.154,8.654a11.989,11.989,0,0,1-1,4.89,11.133,11.133,0,0,1-2.978,3.979,14.3,14.3,0,0,1-4.952,2.673,22.607,22.607,0,0,1-6.988.971,29.483,29.483,0,0,1-6.957-.761,15.639,15.639,0,0,1-5.44-2.407,12.354,12.354,0,0,1-3.706-4.2,15.321,15.321,0,0,1-1.7-6.093Z" transform="translate(-3.724 -16.736)" fill="#21006b"/><path d="M393,115.192a16.57,16.57,0,0,1-6.37-1.153,13.067,13.067,0,0,1-4.731-3.275,14.32,14.32,0,0,1-2.972-5.217,21.768,21.768,0,0,1-1.031-6.915,20.7,20.7,0,0,1,1.091-6.915,15.186,15.186,0,0,1,3.094-5.277,13.569,13.569,0,0,1,4.822-3.366,16.08,16.08,0,0,1,6.278-1.183,16.407,16.407,0,0,1,6.309,1.152,13.226,13.226,0,0,1,4.762,3.306,14.5,14.5,0,0,1,3,5.186,23.381,23.381,0,0,1-.03,13.83,15.08,15.08,0,0,1-3.033,5.278,13.248,13.248,0,0,1-4.822,3.366A16.493,16.493,0,0,1,393,115.192Zm.06-4.368a9.573,9.573,0,0,0,4.34-.909,8.1,8.1,0,0,0,2.983-2.548,11.016,11.016,0,0,0,1.718-3.912,21.562,21.562,0,0,0,.543-5,20.886,20.886,0,0,0-.543-4.913,10.722,10.722,0,0,0-1.718-3.852,8.2,8.2,0,0,0-2.983-2.517,9.573,9.573,0,0,0-4.34-.91,9.37,9.37,0,0,0-4.309.91,8.275,8.275,0,0,0-2.954,2.517,10.739,10.739,0,0,0-1.718,3.852,23.095,23.095,0,0,0,0,9.948,11.359,11.359,0,0,0,1.688,3.882,7.862,7.862,0,0,0,2.953,2.548A9.57,9.57,0,0,0,393.058,110.824Z" transform="translate(-3.724 -16.736)" fill="#21006b"/><path d="M415.5,70.912h5.277v43.309H415.5Z" transform="translate(-3.724 -16.736)" fill="#21006b"/><path d="M428.845,82.861h5.277v19.775q0,4.367,1.426,6.187t4.64,1.82a9.329,9.329,0,0,0,6.369-2.548,10.116,10.116,0,0,0,2.305-2.821,8.206,8.206,0,0,0,.788-3.852V82.861h5.278v31.36h-5.217v-4.852a15.25,15.25,0,0,1-4.974,4.427,12.242,12.242,0,0,1-5.762,1.4q-5.339,0-7.734-2.881t-2.4-8.644Z" transform="translate(-3.724 -16.736)" fill="#21006b"/><path d="M464.875,87.046h-4.853V82.861h4.853V74.309h5.277v8.552h8.31v4.185h-8.31v18.38a6.07,6.07,0,0,0,1.032,3.7,3.659,3.659,0,0,0,3.153,1.395,13.23,13.23,0,0,0,2.336-.182,11.657,11.657,0,0,0,1.85-.485l.91,4.064a18.455,18.455,0,0,1-2.639.7,18.121,18.121,0,0,1-3.366.273,10,10,0,0,1-4.307-.788,6.393,6.393,0,0,1-2.608-2.245,8.721,8.721,0,0,1-1.3-3.457,26.674,26.674,0,0,1-.333-4.367Z" transform="translate(-3.724 -16.736)" fill="#21006b"/><path d="M484.042,70.912h5.641v6.126h-5.641Zm.182,11.949H489.5v31.36h-5.277Z" transform="translate(-3.724 -16.736)" fill="#21006b"/><path d="M511.823,115.192a16.561,16.561,0,0,1-6.369-1.153,13.062,13.062,0,0,1-4.732-3.275,14.32,14.32,0,0,1-2.972-5.217,21.768,21.768,0,0,1-1.031-6.915,20.674,20.674,0,0,1,1.092-6.915A15.184,15.184,0,0,1,500.9,86.44a13.564,13.564,0,0,1,4.823-3.366A16.072,16.072,0,0,1,512,81.891a16.4,16.4,0,0,1,6.309,1.152,13.226,13.226,0,0,1,4.762,3.306,14.5,14.5,0,0,1,3,5.186,23.381,23.381,0,0,1-.03,13.83,15.065,15.065,0,0,1-3.033,5.278,13.248,13.248,0,0,1-4.822,3.366A16.49,16.49,0,0,1,511.823,115.192Zm.06-4.368a9.57,9.57,0,0,0,4.34-.909,8.113,8.113,0,0,0,2.984-2.548,11.033,11.033,0,0,0,1.717-3.912,21.562,21.562,0,0,0,.543-5,20.886,20.886,0,0,0-.543-4.913,10.738,10.738,0,0,0-1.717-3.852,8.213,8.213,0,0,0-2.984-2.517,9.57,9.57,0,0,0-4.34-.91,9.37,9.37,0,0,0-4.309.91,8.263,8.263,0,0,0-2.953,2.517,10.723,10.723,0,0,0-1.719,3.852,23.095,23.095,0,0,0,0,9.948,11.359,11.359,0,0,0,1.688,3.882,7.862,7.862,0,0,0,2.953,2.548A9.57,9.57,0,0,0,511.883,110.824Z" transform="translate(-3.724 -16.736)" fill="#21006b"/><path d="M534.205,82.861h5.217v4.792a14,14,0,0,1,5.1-4.428,13.474,13.474,0,0,1,5.884-1.334q5.336,0,7.915,2.911t2.579,8.553v20.866h-5.278V94.386q0-4.367-1.577-6.157a6.14,6.14,0,0,0-4.852-1.789,10.5,10.5,0,0,0-3.488.606,8.627,8.627,0,0,0-3.124,1.942,10.088,10.088,0,0,0-2.305,2.82,8.2,8.2,0,0,0-.789,3.852v18.561h-5.277Z" transform="translate(-3.724 -16.736)" fill="#21006b"/><path d="M572.176,105.062a6.117,6.117,0,0,0,2.76,4.58,11.881,11.881,0,0,0,6.036,1.3q4,0,5.671-1.365a4.432,4.432,0,0,0,1.668-3.609,6.888,6.888,0,0,0-.212-1.729,3.287,3.287,0,0,0-.819-1.456,5.3,5.3,0,0,0-1.7-1.122,12.376,12.376,0,0,0-2.852-.789l-4-.606a29.394,29.394,0,0,1-4.67-1.092,11.623,11.623,0,0,1-3.4-1.729,6.689,6.689,0,0,1-2.093-2.608,9.034,9.034,0,0,1-.7-3.73,7.866,7.866,0,0,1,.94-3.882,8.627,8.627,0,0,1,2.608-2.882,12.643,12.643,0,0,1,3.943-1.819,18.255,18.255,0,0,1,4.943-.637,20.477,20.477,0,0,1,5.672.667,10.914,10.914,0,0,1,3.73,1.819,8.062,8.062,0,0,1,2.245,2.73,15.751,15.751,0,0,1,1.213,3.336l-4.792.789a12.971,12.971,0,0,0-.971-2.244,4.827,4.827,0,0,0-1.456-1.608,6.732,6.732,0,0,0-2.214-.97,13.361,13.361,0,0,0-3.245-.334,14.218,14.218,0,0,0-3.639.394,6.775,6.775,0,0,0-2.335,1.062,3.867,3.867,0,0,0-1.244,1.486,4.2,4.2,0,0,0-.364,1.729,5.664,5.664,0,0,0,.243,1.729,2.918,2.918,0,0,0,.91,1.334,5.856,5.856,0,0,0,1.819,1,16.765,16.765,0,0,0,2.973.728l4.549.728q5.519.909,7.915,3.154t2.4,6.551a8.489,8.489,0,0,1-.788,3.67,8.111,8.111,0,0,1-2.365,2.911,11.593,11.593,0,0,1-3.943,1.941,19.634,19.634,0,0,1-5.52.7,24.441,24.441,0,0,1-5.308-.546,13.609,13.609,0,0,1-4.337-1.729,9.132,9.132,0,0,1-3.032-3.124,10.472,10.472,0,0,1-1.335-4.731Z" transform="translate(-3.724 -16.736)" fill="#21006b"/><path d="M3.724,235.771a61.037,61.037,0,0,1,9.064-.686c6.125,0,10.485,1.421,13.376,4.115,2.94,2.7,4.654,6.517,4.654,11.858,0,5.389-1.665,9.8-4.752,12.837-3.087,3.086-8.183,4.752-14.6,4.752a68.775,68.775,0,0,1-7.741-.392Zm4.262,29.2a26.919,26.919,0,0,0,4.312.245c9.113,0,14.062-5.095,14.062-14.012.049-7.791-4.361-12.74-13.376-12.74a24.293,24.293,0,0,0-5,.441Z" transform="translate(-3.724 -16.736)" fill="#21006b"/><path d="M41.005,237.976a2.671,2.671,0,0,1-5.341,0,2.627,2.627,0,0,1,2.7-2.695A2.559,2.559,0,0,1,41.005,237.976Zm-4.8,30.377V244.639h4.312v23.714Z" transform="translate(-3.724 -16.736)" fill="#21006b"/><path d="M47.079,263.943a11.3,11.3,0,0,0,5.683,1.715c3.136,0,4.606-1.568,4.606-3.528,0-2.057-1.225-3.184-4.41-4.36-4.263-1.519-6.271-3.871-6.271-6.712,0-3.822,3.086-6.958,8.182-6.958a11.84,11.84,0,0,1,5.831,1.47l-1.078,3.136a9.233,9.233,0,0,0-4.851-1.372c-2.548,0-3.969,1.47-3.969,3.233,0,1.96,1.421,2.842,4.508,4.018,4.116,1.568,6.222,3.626,6.222,7.154,0,4.164-3.233,7.1-8.868,7.1A13.528,13.528,0,0,1,46,267.226Z" transform="translate(-3.724 -16.736)" fill="#21006b"/><path d="M67.066,252.38c0-3.037-.1-5.487-.2-7.741h3.87l.2,4.067h.1a9.323,9.323,0,0,1,8.427-4.606c5.733,0,10.045,4.851,10.045,12.053,0,8.525-5.194,12.739-10.779,12.739a8.317,8.317,0,0,1-7.3-3.724h-.1v12.886H67.066Zm4.263,6.321a9.71,9.71,0,0,0,.2,1.764,6.653,6.653,0,0,0,6.468,5.046c4.556,0,7.2-3.723,7.2-9.162,0-4.753-2.5-8.819-7.055-8.819a6.881,6.881,0,0,0-6.517,5.34,6.993,6.993,0,0,0-.294,1.764Z" transform="translate(-3.724 -16.736)" fill="#21006b"/><path d="M108.072,268.353l-.343-2.989h-.147a8.833,8.833,0,0,1-7.251,3.528c-4.8,0-7.252-3.381-7.252-6.81,0-5.733,5.1-8.869,14.258-8.82v-.49c0-1.96-.539-5.487-5.39-5.487a11.815,11.815,0,0,0-6.173,1.764l-.98-2.842a14.718,14.718,0,0,1,7.79-2.107c7.252,0,9.016,4.949,9.016,9.7v8.868a33.385,33.385,0,0,0,.392,5.684Zm-.637-12.1c-4.7-.1-10.044.735-10.044,5.341a3.815,3.815,0,0,0,4.067,4.115,5.9,5.9,0,0,0,5.732-3.968,4.506,4.506,0,0,0,.245-1.372Z" transform="translate(-3.724 -16.736)" fill="#21006b"/><path d="M123.552,237.829v6.81h6.173v3.283h-6.173v12.787c0,2.94.832,4.606,3.233,4.606a9.592,9.592,0,0,0,2.5-.294l.2,3.234a10.556,10.556,0,0,1-3.822.588A5.973,5.973,0,0,1,121,267.03c-1.225-1.274-1.666-3.381-1.666-6.174V247.922h-3.675v-3.283h3.675v-5.683Z" transform="translate(-3.724 -16.736)" fill="#21006b"/><path d="M151.184,267.471a15.883,15.883,0,0,1-6.811,1.372c-7.153,0-11.808-4.851-11.808-12.1,0-7.3,5-12.592,12.739-12.592a14.408,14.408,0,0,1,5.977,1.225l-.979,3.332a10,10,0,0,0-5-1.127c-5.439,0-8.378,4.017-8.378,8.966,0,5.488,3.527,8.868,8.231,8.868a12.25,12.25,0,0,0,5.292-1.176Z" transform="translate(-3.724 -16.736)" fill="#21006b"/><path d="M156.227,233.566h4.312v14.8h.1a8,8,0,0,1,3.087-3.038,8.871,8.871,0,0,1,4.409-1.225c3.185,0,8.281,1.96,8.281,10.142v14.111H172.1V254.732c0-3.821-1.421-7.055-5.488-7.055a6.194,6.194,0,0,0-5.781,4.311,5.221,5.221,0,0,0-.294,2.058v14.307h-4.312Z" transform="translate(-3.724 -16.736)" fill="#21006b"/><path d="M284.783,267.275a21.159,21.159,0,0,1-8.721,1.568c-9.31,0-16.316-5.88-16.316-16.708,0-10.338,7.006-17.344,17.246-17.344a17.7,17.7,0,0,1,7.84,1.47l-1.029,3.478a15.544,15.544,0,0,0-6.664-1.371c-7.741,0-12.886,4.948-12.886,13.62,0,8.085,4.655,13.278,12.69,13.278A17.065,17.065,0,0,0,283.9,263.9Z" transform="translate(-3.724 -16.736)" fill="#21006b"/><path d="M310.9,256.3c0,8.77-6.076,12.592-11.809,12.592-6.418,0-11.367-4.7-11.367-12.2,0-7.938,5.194-12.592,11.76-12.592C306.289,244.1,310.9,249.049,310.9,256.3Zm-18.815.245c0,5.194,2.989,9.113,7.2,9.113,4.116,0,7.2-3.87,7.2-9.211,0-4.018-2.009-9.113-7.105-9.113S292.08,252.038,292.08,256.545Z" transform="translate(-3.724 -16.736)" fill="#21006b"/><path d="M316.329,251.058c0-2.451-.049-4.459-.2-6.419h3.773l.2,3.821h.147a8.174,8.174,0,0,1,7.447-4.36,7.011,7.011,0,0,1,6.713,4.753h.1a9.767,9.767,0,0,1,2.645-3.087A8.093,8.093,0,0,1,342.4,244.1c3.136,0,7.791,2.058,7.791,10.289v13.964h-4.214V254.928c0-4.556-1.666-7.3-5.145-7.3a5.582,5.582,0,0,0-5.1,3.919,7.133,7.133,0,0,0-.342,2.156v14.65h-4.214V254.144c0-3.772-1.666-6.516-4.948-6.516a6.425,6.425,0,0,0-5.684,6.418v14.307h-4.214Z" transform="translate(-3.724 -16.736)" fill="#21006b"/><path d="M357.187,252.38c0-3.037-.1-5.487-.2-7.741h3.871l.2,4.067h.1a9.321,9.321,0,0,1,8.427-4.606c5.732,0,10.044,4.851,10.044,12.053,0,8.525-5.193,12.739-10.779,12.739a8.315,8.315,0,0,1-7.3-3.724h-.1v12.886h-4.263Zm4.263,6.321a9.71,9.71,0,0,0,.2,1.764,6.651,6.651,0,0,0,6.467,5.046c4.557,0,7.2-3.723,7.2-9.162,0-4.753-2.5-8.819-7.055-8.819a6.88,6.88,0,0,0-6.516,5.34,6.993,6.993,0,0,0-.294,1.764Z" transform="translate(-3.724 -16.736)" fill="#21006b"/><path d="M385.062,233.566h4.311v34.787h-4.311Z" transform="translate(-3.724 -16.736)" fill="#21006b"/><path d="M401.424,237.976a2.671,2.671,0,0,1-5.341,0,2.627,2.627,0,0,1,2.695-2.695A2.559,2.559,0,0,1,401.424,237.976Zm-4.8,30.377V244.639h4.311v23.714Z" transform="translate(-3.724 -16.736)" fill="#21006b"/><path d="M421.217,268.353l-.343-2.989h-.147a8.833,8.833,0,0,1-7.251,3.528c-4.8,0-7.252-3.381-7.252-6.81,0-5.733,5.1-8.869,14.258-8.82v-.49c0-1.96-.539-5.487-5.39-5.487a11.815,11.815,0,0,0-6.173,1.764l-.98-2.842a14.718,14.718,0,0,1,7.79-2.107c7.252,0,9.016,4.949,9.016,9.7v8.868a33.385,33.385,0,0,0,.392,5.684Zm-.637-12.1c-4.7-.1-10.044.735-10.044,5.341a3.815,3.815,0,0,0,4.067,4.115,5.9,5.9,0,0,0,5.732-3.968,4.506,4.506,0,0,0,.245-1.372Z" transform="translate(-3.724 -16.736)" fill="#21006b"/><path d="M431.7,251.058c0-2.451-.049-4.459-.2-6.419h3.822l.244,3.92h.1a8.721,8.721,0,0,1,7.84-4.459c3.283,0,8.378,1.96,8.378,10.093v14.16h-4.312v-13.67c0-3.822-1.42-7.006-5.487-7.006a6.128,6.128,0,0,0-5.782,4.409,6.2,6.2,0,0,0-.294,2.009v14.258H431.7Z" transform="translate(-3.724 -16.736)" fill="#21006b"/><path d="M475.792,267.471a15.883,15.883,0,0,1-6.811,1.372c-7.153,0-11.808-4.851-11.808-12.1,0-7.3,5-12.592,12.739-12.592a14.414,14.414,0,0,1,5.978,1.225l-.98,3.332a10,10,0,0,0-5-1.127c-5.438,0-8.378,4.017-8.378,8.966,0,5.488,3.528,8.868,8.231,8.868a12.25,12.25,0,0,0,5.292-1.176Z" transform="translate(-3.724 -16.736)" fill="#21006b"/><path d="M482.942,257.28c.1,5.83,3.822,8.231,8.134,8.231a15.588,15.588,0,0,0,6.565-1.225l.735,3.087a19.207,19.207,0,0,1-7.888,1.47c-7.3,0-11.661-4.8-11.661-11.955s4.214-12.788,11.122-12.788c7.741,0,9.8,6.811,9.8,11.171a16.263,16.263,0,0,1-.147,2.009Zm12.641-3.087c.049-2.744-1.126-7.006-5.977-7.006-4.361,0-6.272,4.018-6.615,7.006Z" transform="translate(-3.724 -16.736)" fill="#21006b"/><path d="M609.61,267.275a21.156,21.156,0,0,1-8.721,1.568c-9.309,0-16.316-5.88-16.316-16.708,0-10.338,7.007-17.344,17.247-17.344a17.7,17.7,0,0,1,7.839,1.47l-1.029,3.478a15.535,15.535,0,0,0-6.663-1.371c-7.741,0-12.886,4.948-12.886,13.62,0,8.085,4.655,13.278,12.69,13.278a17.065,17.065,0,0,0,6.958-1.371Z" transform="translate(-3.724 -16.736)" fill="#21006b"/><path d="M627.588,268.353l-.342-2.989H627.1a8.835,8.835,0,0,1-7.252,3.528c-4.8,0-7.251-3.381-7.251-6.81,0-5.733,5.1-8.869,14.258-8.82v-.49c0-1.96-.54-5.487-5.39-5.487a11.813,11.813,0,0,0-6.173,1.764l-.98-2.842a14.715,14.715,0,0,1,7.79-2.107c7.252,0,9.015,4.949,9.015,9.7v8.868a33.385,33.385,0,0,0,.392,5.684Zm-.636-12.1c-4.7-.1-10.045.735-10.045,5.341a3.816,3.816,0,0,0,4.067,4.115,5.9,5.9,0,0,0,5.733-3.968,4.506,4.506,0,0,0,.245-1.372Z" transform="translate(-3.724 -16.736)" fill="#21006b"/><path d="M638.07,252.038c0-2.793-.049-5.194-.2-7.4h3.772l.147,4.654h.2a7.116,7.116,0,0,1,6.566-5.193,4.656,4.656,0,0,1,1.224.147v4.066a6.536,6.536,0,0,0-1.469-.146c-3.038,0-5.194,2.3-5.782,5.536a12.137,12.137,0,0,0-.2,2.009v12.641H638.07Z" transform="translate(-3.724 -16.736)" fill="#21006b"/><path d="M654.286,252.038c0-2.793-.049-5.194-.2-7.4h3.772l.147,4.654h.2a7.114,7.114,0,0,1,6.565-5.193,4.664,4.664,0,0,1,1.225.147v4.066a6.54,6.54,0,0,0-1.47-.146c-3.038,0-5.194,2.3-5.782,5.536a12.137,12.137,0,0,0-.2,2.009v12.641h-4.262Z" transform="translate(-3.724 -16.736)" fill="#21006b"/><path d="M675.3,237.976a2.671,2.671,0,0,1-5.341,0,2.627,2.627,0,0,1,2.7-2.695A2.559,2.559,0,0,1,675.3,237.976Zm-4.8,30.377V244.639h4.311v23.714Z" transform="translate(-3.724 -16.736)" fill="#21006b"/><path d="M684.365,257.28c.1,5.83,3.822,8.231,8.134,8.231a15.591,15.591,0,0,0,6.565-1.225l.735,3.087a19.207,19.207,0,0,1-7.888,1.47c-7.3,0-11.661-4.8-11.661-11.955s4.213-12.788,11.122-12.788c7.741,0,9.8,6.811,9.8,11.171a16.263,16.263,0,0,1-.147,2.009Zm12.641-3.087c.049-2.744-1.127-7.006-5.977-7.006-4.361,0-6.272,4.018-6.615,7.006Z" transform="translate(-3.724 -16.736)" fill="#21006b"/><path d="M706.508,252.038c0-2.793-.049-5.194-.2-7.4h3.772l.147,4.654h.2a7.114,7.114,0,0,1,6.565-5.193,4.664,4.664,0,0,1,1.225.147v4.066a6.54,6.54,0,0,0-1.47-.146c-3.038,0-5.193,2.3-5.782,5.536a12.252,12.252,0,0,0-.2,2.009v12.641h-4.263Z" transform="translate(-3.724 -16.736)" fill="#21006b"/><path d="M732.472,263.16a15.11,15.11,0,0,0,7.643,2.155c4.361,0,6.908-2.3,6.908-5.634,0-3.087-1.763-4.851-6.222-6.566-5.389-1.91-8.721-4.7-8.721-9.358,0-5.145,4.262-8.966,10.681-8.966a15,15,0,0,1,7.3,1.617l-1.176,3.478a13.145,13.145,0,0,0-6.271-1.568c-4.508,0-6.222,2.695-6.222,4.949,0,3.087,2.008,4.606,6.565,6.37,5.585,2.155,8.427,4.85,8.427,9.7,0,5.095-3.773,9.5-11.563,9.5a17.063,17.063,0,0,1-8.427-2.107Z" transform="translate(-3.724 -16.736)" fill="#21006b"/><path d="M759.759,257.28c.1,5.83,3.822,8.231,8.134,8.231a15.591,15.591,0,0,0,6.565-1.225l.735,3.087a19.207,19.207,0,0,1-7.888,1.47c-7.3,0-11.661-4.8-11.661-11.955s4.213-12.788,11.122-12.788c7.741,0,9.8,6.811,9.8,11.171a16.263,16.263,0,0,1-.147,2.009Zm12.641-3.087c.049-2.744-1.127-7.006-5.977-7.006-4.361,0-6.272,4.018-6.615,7.006Z" transform="translate(-3.724 -16.736)" fill="#21006b"/><path d="M781.9,252.038c0-2.793-.049-5.194-.2-7.4h3.773l.146,4.654h.2a7.114,7.114,0,0,1,6.565-5.193,4.664,4.664,0,0,1,1.225.147v4.066a6.54,6.54,0,0,0-1.47-.146c-3.038,0-5.194,2.3-5.782,5.536a12.252,12.252,0,0,0-.2,2.009v12.641H781.9Z" transform="translate(-3.724 -16.736)" fill="#21006b"/><path d="M800.812,244.639l4.654,13.327a60.989,60.989,0,0,1,1.911,6.076h.147c.539-1.96,1.225-3.92,2.009-6.076l4.606-13.327h4.507l-9.309,23.714h-4.115l-9.016-23.714Z" transform="translate(-3.724 -16.736)" fill="#21006b"/><path d="M827.511,237.976a2.671,2.671,0,0,1-5.341,0,2.627,2.627,0,0,1,2.7-2.695A2.559,2.559,0,0,1,827.511,237.976Zm-4.8,30.377V244.639h4.312v23.714Z" transform="translate(-3.724 -16.736)" fill="#21006b"/><path d="M851.077,267.471a15.883,15.883,0,0,1-6.811,1.372c-7.153,0-11.808-4.851-11.808-12.1,0-7.3,5-12.592,12.739-12.592a14.4,14.4,0,0,1,5.977,1.225l-.98,3.332a9.992,9.992,0,0,0-5-1.127c-5.439,0-8.378,4.017-8.378,8.966,0,5.488,3.527,8.868,8.231,8.868a12.25,12.25,0,0,0,5.292-1.176Z" transform="translate(-3.724 -16.736)" fill="#21006b"/><path d="M858.228,257.28c.1,5.83,3.821,8.231,8.133,8.231a15.584,15.584,0,0,0,6.565-1.225l.735,3.087a19.2,19.2,0,0,1-7.888,1.47c-7.3,0-11.661-4.8-11.661-11.955s4.214-12.788,11.122-12.788c7.741,0,9.8,6.811,9.8,11.171a16.263,16.263,0,0,1-.147,2.009Zm12.641-3.087c.048-2.744-1.127-7.006-5.978-7.006-4.361,0-6.271,4.018-6.615,7.006Z" transform="translate(-3.724 -16.736)" fill="#21006b"/><path d="M879.782,263.943a11.3,11.3,0,0,0,5.684,1.715c3.136,0,4.605-1.568,4.605-3.528,0-2.057-1.224-3.184-4.409-4.36-4.263-1.519-6.272-3.871-6.272-6.712,0-3.822,3.087-6.958,8.183-6.958a11.836,11.836,0,0,1,5.83,1.47l-1.078,3.136a9.229,9.229,0,0,0-4.85-1.372c-2.548,0-3.969,1.47-3.969,3.233,0,1.96,1.421,2.842,4.508,4.018,4.115,1.568,6.222,3.626,6.222,7.154,0,4.164-3.234,7.1-8.868,7.1a13.525,13.525,0,0,1-6.664-1.617Z" transform="translate(-3.724 -16.736)" fill="#21006b"/><circle cx="212.877" cy="237.238" r="10" fill="#21006b"/><circle cx="540.32" cy="237.238" r="10" fill="#21006b"/></g></g></svg>