<svg xmlns="http://www.w3.org/2000/svg" viewBox="0 0 792.114 184.071"><g id="Layer_2" data-name="Layer 2"><g id="Layer_1-2" data-name="Layer 1"><path d="M244.018,200.807h19.064C752.243,102.655,746.726,44.477,412.726,27.585h0C745.486,45.038,742.877,102.636,244.018,200.807Z" transform="translate(-7.899 -16.736)" fill="#fff"/><path d="M681.815,200.807h15.478C911.033,103.191,779.669,28.43,410.337,27.586,778.431,28.994,905.254,103.171,681.815,200.807Z" transform="translate(-7.899 -16.736)" fill="#fff"/><path d="M657.773,54.123l2.611-.341q7.452,2.132,13.873,4.416l-3.068.374Q665.015,56.271,657.773,54.123Z" transform="translate(-7.899 -16.736)" fill="#fff"/><path d="M694.138,109.546l8.382.208a102.709,102.709,0,0,1-16.861,13.675l-9.139-.521A115.287,115.287,0,0,0,694.138,109.546Z" transform="translate(-7.899 -16.736)" fill="#fff"/><path d="M608.134,43.2l1.615-.256q8.205,1.331,15.766,2.765l-1.723.306C618.786,45.042,613.577,44.1,608.134,43.2Z" transform="translate(-7.899 -16.736)" fill="#fff"/><path d="M633.092,47.917l1.96-.31q8.943,1.87,16.891,3.9l-2.351.336Q641.858,49.8,633.092,47.917Z" transform="translate(-7.899 -16.736)" fill="#fff"/><path d="M696.539,72.055l4.667-.356a32.077,32.077,0,0,1,8.875,9.735l-5.8.272A27.372,27.372,0,0,0,696.539,72.055Z" transform="translate(-7.899 -16.736)" fill="#fff"/><path d="M678.641,61.577l3.416-.375a107.918,107.918,0,0,1,11.765,5.675l-4.086.373A94.069,94.069,0,0,0,678.641,61.577Z" transform="translate(-7.899 -16.736)" fill="#fff"/><path d="M410.337,27.586c77.525,1.922,141.368,6.654,190.079,13.908l-1.426.253C551.05,34.445,487.689,29.635,410.337,27.586Z" transform="translate(-7.899 -16.736)" fill="#fff"/><path d="M603.2,157.295l12.759.274q-18.279,7.191-40.168,14.7h-15Q583.895,164.619,603.2,157.295Z" transform="translate(-7.899 -16.736)" fill="#fff"/><path d="M662.673,130.972l9.607.651q-14.2,8.008-33.59,16.52l-11.9-.256Q647.512,139.168,662.673,130.972Z" transform="translate(-7.899 -16.736)" fill="#fff"/><path d="M544.417,182.578q-28.227,8.919-61.431,18.229H465.118q34.158-9.31,63.251-18.229Z" transform="translate(-7.899 -16.736)" fill="#fff"/><path d="M705.772,88.529l6.541-.216c.483,4.459-.785,9.132-3.859,14.011l-7.821-.059C704.1,97.485,705.788,92.905,705.772,88.529Z" transform="translate(-7.899 -16.736)" fill="#fff"/><path d="M7.9,19.146H27.851V76.054q0,12.185,4.284,18.076t14.327,5.891q10.042,0,14.261-5.891T64.94,76.054V19.146H84.891V76.054a57.354,57.354,0,0,1-2.678,18.611,33.4,33.4,0,0,1-7.632,12.787,29.672,29.672,0,0,1-12.118,7.364,51.773,51.773,0,0,1-16.135,2.344,50.9,50.9,0,0,1-16.268-2.41,30.274,30.274,0,0,1-12.118-7.432,31.987,31.987,0,0,1-7.5-12.921A61.418,61.418,0,0,1,7.9,75.651Z" transform="translate(-7.899 -16.736)" fill="#b91797"/><path d="M145.144,117.16A49.824,49.824,0,0,1,126,113.679a38.94,38.94,0,0,1-14.327-10.042,45.016,45.016,0,0,1-9.038-15.8,64.577,64.577,0,0,1-3.147-20.888,64.579,64.579,0,0,1,3.147-20.887,44.5,44.5,0,0,1,9.105-15.8A39.573,39.573,0,0,1,126.13,20.218a49.433,49.433,0,0,1,19.014-3.482,49.81,49.81,0,0,1,19.147,3.482,38.345,38.345,0,0,1,14.26,10.043,44.815,44.815,0,0,1,8.9,15.8,65.88,65.88,0,0,1,3.08,20.887,67.209,67.209,0,0,1-3.013,20.888,44,44,0,0,1-8.836,15.8,38.331,38.331,0,0,1-14.261,10.042A50.2,50.2,0,0,1,145.144,117.16Zm-.134-17.139q12.584,0,18.746-8.57t6.159-24.5q0-15.8-6.159-24.436T145.01,33.876q-12.588,0-18.745,8.636T120.1,66.948q0,15.936,6.161,24.5T145.01,100.021Z" transform="translate(-7.899 -16.736)" fill="#b91797"/><path d="M224.679,36.42H195.891V19.146h77.661V36.42H244.764v78.33H224.679Z" transform="translate(-7.899 -16.736)" fill="#b91797"/><path d="M282.837,97.525q.728,4.549,3.608,6.581t8.583,2.033a15.26,15.26,0,0,0,4.762-.636,8.364,8.364,0,0,0,3.064-1.7,5.958,5.958,0,0,0,1.637-2.484,9.229,9.229,0,0,0,.486-3,9.842,9.842,0,0,0-.3-2.453,5.032,5.032,0,0,0-1.183-2.15,7.57,7.57,0,0,0-2.426-1.7,15.987,15.987,0,0,0-3.973-1.152l-5.459-.968a32.445,32.445,0,0,1-5.7-1.453,14.211,14.211,0,0,1-4.215-2.333,8.933,8.933,0,0,1-2.609-3.543,13.437,13.437,0,0,1-.879-5.148,10.553,10.553,0,0,1,1.243-5.208,11.3,11.3,0,0,1,3.367-3.756,14.723,14.723,0,0,1,5.034-2.241,25.975,25.975,0,0,1,6.309-.727,23.5,23.5,0,0,1,7.187.94,13.474,13.474,0,0,1,4.7,2.517,10.721,10.721,0,0,1,2.76,3.609,21.1,21.1,0,0,1,1.426,4.156l-5.217,1.031a15.3,15.3,0,0,0-1.243-3.245,7.14,7.14,0,0,0-2-2.366,8.773,8.773,0,0,0-3.063-1.425,17.437,17.437,0,0,0-4.428-.486,19.269,19.269,0,0,0-4.974.545,9.133,9.133,0,0,0-3.215,1.483,5.261,5.261,0,0,0-1.729,2.238,7.391,7.391,0,0,0-.515,2.752A8.666,8.666,0,0,0,284.262,80a4.676,4.676,0,0,0,1.335,2.027,8.118,8.118,0,0,0,2.456,1.451,20.417,20.417,0,0,0,3.76,1.029L297.88,85.6q6.732,1.275,9.887,4.221t3.154,8.656a11.984,11.984,0,0,1-1,4.889,11.125,11.125,0,0,1-2.978,3.979,14.3,14.3,0,0,1-4.952,2.673,22.607,22.607,0,0,1-6.988.971,29.428,29.428,0,0,1-6.957-.762,15.6,15.6,0,0,1-5.439-2.407,12.347,12.347,0,0,1-3.708-4.2,15.354,15.354,0,0,1-1.7-6.093Z" transform="translate(-7.899 -16.736)" fill="#b91797"/><path d="M332.029,110.87a16.568,16.568,0,0,1-6.369-1.153,13.069,13.069,0,0,1-4.731-3.276,14.319,14.319,0,0,1-2.972-5.215,21.781,21.781,0,0,1-1.031-6.915,20.67,20.67,0,0,1,1.092-6.915,15.149,15.149,0,0,1,3.093-5.278,13.555,13.555,0,0,1,4.823-3.366,16.065,16.065,0,0,1,6.277-1.184,16.4,16.4,0,0,1,6.309,1.153,13.214,13.214,0,0,1,4.761,3.306,14.478,14.478,0,0,1,3,5.186,23.381,23.381,0,0,1-.03,13.83,15.084,15.084,0,0,1-3.033,5.277,13.234,13.234,0,0,1-4.823,3.367A16.468,16.468,0,0,1,332.029,110.87Zm.061-4.368a9.57,9.57,0,0,0,4.34-.909,8.093,8.093,0,0,0,2.983-2.548,11.042,11.042,0,0,0,1.718-3.912,21.562,21.562,0,0,0,.543-5,20.892,20.892,0,0,0-.543-4.913,10.747,10.747,0,0,0-1.718-3.852,8.2,8.2,0,0,0-2.983-2.517,9.557,9.557,0,0,0-4.34-.91,9.365,9.365,0,0,0-4.31.91,8.28,8.28,0,0,0-2.953,2.517,10.747,10.747,0,0,0-1.718,3.852,23.053,23.053,0,0,0,0,9.948,11.359,11.359,0,0,0,1.688,3.882,7.853,7.853,0,0,0,2.953,2.548A9.57,9.57,0,0,0,332.09,106.5Z" transform="translate(-7.899 -16.736)" fill="#b91797"/><path d="M354.533,66.59h5.278V109.9h-5.278Z" transform="translate(-7.899 -16.736)" fill="#b91797"/><path d="M367.877,78.539h5.277V98.313q0,4.37,1.426,6.188t4.64,1.819a9.326,9.326,0,0,0,6.369-2.548,10.1,10.1,0,0,0,2.305-2.82,8.2,8.2,0,0,0,.789-3.851V78.539h5.277V109.9h-5.217v-4.852a15.273,15.273,0,0,1-4.973,4.428,12.275,12.275,0,0,1-5.763,1.4q-5.339,0-7.735-2.882t-2.395-8.643Z" transform="translate(-7.899 -16.736)" fill="#b91797"/><path d="M403.907,82.725h-4.852V78.539h4.852V69.986h5.278v8.553h8.309v4.186h-8.309V101.1a6.07,6.07,0,0,0,1.031,3.7,3.661,3.661,0,0,0,3.153,1.395,13.135,13.135,0,0,0,2.336-.182,11.765,11.765,0,0,0,1.85-.485l.91,4.064a18.66,18.66,0,0,1-2.639.7,18.036,18.036,0,0,1-3.366.273,10,10,0,0,1-4.307-.788,6.4,6.4,0,0,1-2.608-2.245,8.721,8.721,0,0,1-1.305-3.457,26.674,26.674,0,0,1-.333-4.367Z" transform="translate(-7.899 -16.736)" fill="#b91797"/><path d="M423.074,66.59h5.641v6.126h-5.641Zm.182,11.949h5.277V109.9h-5.277Z" transform="translate(-7.899 -16.736)" fill="#b91797"/><path d="M450.854,110.87a16.568,16.568,0,0,1-6.369-1.153,13.069,13.069,0,0,1-4.731-3.276,14.319,14.319,0,0,1-2.972-5.215,21.781,21.781,0,0,1-1.031-6.915,20.67,20.67,0,0,1,1.092-6.915,15.151,15.151,0,0,1,3.094-5.278,13.551,13.551,0,0,1,4.822-3.366,16.068,16.068,0,0,1,6.277-1.184,16.4,16.4,0,0,1,6.309,1.153,13.214,13.214,0,0,1,4.761,3.306,14.478,14.478,0,0,1,3,5.186,23.36,23.36,0,0,1-.03,13.83,15.084,15.084,0,0,1-3.033,5.277,13.238,13.238,0,0,1-4.822,3.367A16.476,16.476,0,0,1,450.854,110.87Zm.061-4.368a9.567,9.567,0,0,0,4.34-.909,8.093,8.093,0,0,0,2.983-2.548,11.042,11.042,0,0,0,1.718-3.912,21.562,21.562,0,0,0,.543-5,20.892,20.892,0,0,0-.543-4.913,10.747,10.747,0,0,0-1.718-3.852,8.2,8.2,0,0,0-2.983-2.517,9.554,9.554,0,0,0-4.34-.91,9.368,9.368,0,0,0-4.31.91,8.288,8.288,0,0,0-2.953,2.517,10.729,10.729,0,0,0-1.717,3.852,23.053,23.053,0,0,0,0,9.948,11.339,11.339,0,0,0,1.687,3.882,7.853,7.853,0,0,0,2.953,2.548A9.573,9.573,0,0,0,450.915,106.5Z" transform="translate(-7.899 -16.736)" fill="#b91797"/><path d="M473.237,78.539h5.217v4.792a14,14,0,0,1,5.095-4.428,13.475,13.475,0,0,1,5.884-1.335q5.336,0,7.916,2.912t2.578,8.553V109.9h-5.278V90.064q0-4.368-1.577-6.157a6.139,6.139,0,0,0-4.852-1.789,10.483,10.483,0,0,0-3.489.607,8.614,8.614,0,0,0-3.124,1.941,10.132,10.132,0,0,0-2.3,2.82,8.2,8.2,0,0,0-.788,3.852V109.9h-5.278Z" transform="translate(-7.899 -16.736)" fill="#b91797"/><path d="M511.208,100.74a6.113,6.113,0,0,0,2.76,4.579,11.878,11.878,0,0,0,6.036,1.3q4,0,5.671-1.365a4.433,4.433,0,0,0,1.668-3.61,6.886,6.886,0,0,0-.212-1.728,3.3,3.3,0,0,0-.819-1.456,5.291,5.291,0,0,0-1.7-1.122,12.31,12.31,0,0,0-2.85-.788l-4-.607a29.394,29.394,0,0,1-4.67-1.092,11.642,11.642,0,0,1-3.4-1.729A6.69,6.69,0,0,1,507.6,90.52a9.042,9.042,0,0,1-.7-3.731,7.873,7.873,0,0,1,.941-3.883,8.614,8.614,0,0,1,2.608-2.881,12.62,12.62,0,0,1,3.943-1.819,18.259,18.259,0,0,1,4.943-.638,20.468,20.468,0,0,1,5.672.668,10.914,10.914,0,0,1,3.73,1.82,8.034,8.034,0,0,1,2.244,2.729,15.642,15.642,0,0,1,1.213,3.336l-4.792.789a12.938,12.938,0,0,0-.969-2.244,4.836,4.836,0,0,0-1.456-1.607,6.751,6.751,0,0,0-2.214-.971,13.367,13.367,0,0,0-3.245-.334,14.221,14.221,0,0,0-3.64.394,6.794,6.794,0,0,0-2.335,1.062A3.86,3.86,0,0,0,512.3,84.7a4.219,4.219,0,0,0-.363,1.729,5.653,5.653,0,0,0,.242,1.728,2.923,2.923,0,0,0,.91,1.335,5.835,5.835,0,0,0,1.819,1,16.668,16.668,0,0,0,2.973.729l4.549.727q5.519.91,7.916,3.155t2.395,6.55a8.469,8.469,0,0,1-.788,3.67,8.1,8.1,0,0,1-2.365,2.912,11.575,11.575,0,0,1-3.943,1.941,19.6,19.6,0,0,1-5.52.7,24.447,24.447,0,0,1-5.308-.546,13.619,13.619,0,0,1-4.337-1.729,9.144,9.144,0,0,1-3.033-3.124,10.481,10.481,0,0,1-1.334-4.731Z" transform="translate(-7.899 -16.736)" fill="#b91797"/></g></g></svg>