<svg xmlns="http://www.w3.org/2000/svg" viewBox="0 0 909.91 262.271"><g id="Layer_2" data-name="Layer 2"><g id="Layer_1-2" data-name="Layer 1"><path d="M319.477,200.807H822.538c199.194-97.589,61.019-173.221-310.176-173.221C843.263,45.883,833.839,102.608,319.477,200.807Z" transform="translate(-3.724 -16.736)" fill="none"/><path d="M346.043,200.807h19.065C854.269,102.655,848.752,44.477,514.751,27.585h0C847.511,45.038,844.9,102.636,346.043,200.807Z" transform="translate(-3.724 -16.736)" fill="#fff"/><path d="M783.841,200.807h15.477c213.74-97.616,82.376-172.377-286.956-173.221C880.457,28.994,1007.279,103.171,783.841,200.807Z" transform="translate(-3.724 -16.736)" fill="#fff"/><path d="M759.8,54.123l2.611-.341q7.452,2.13,13.873,4.416l-3.069.374Q767.042,56.269,759.8,54.123Z" transform="translate(-3.724 -16.736)" fill="#fff"/><path d="M796.164,109.546l8.382.208a102.761,102.761,0,0,1-16.861,13.675l-9.139-.521A115.352,115.352,0,0,0,796.164,109.546Z" transform="translate(-3.724 -16.736)" fill="#fff"/><path d="M710.159,43.2l1.616-.257q8.205,1.332,15.766,2.766l-1.723.306C720.812,45.042,715.6,44.1,710.159,43.2Z" transform="translate(-3.724 -16.736)" fill="#fff"/><path d="M735.118,47.917l1.96-.311q8.942,1.872,16.891,3.9l-2.352.336Q743.885,49.8,735.118,47.917Z" transform="translate(-3.724 -16.736)" fill="#fff"/><path d="M798.565,72.055l4.666-.356a32.068,32.068,0,0,1,8.876,9.735l-5.8.272A27.383,27.383,0,0,0,798.565,72.055Z" transform="translate(-3.724 -16.736)" fill="#fff"/><path d="M780.667,61.577l3.416-.375a107.918,107.918,0,0,1,11.765,5.675l-4.086.373A93.918,93.918,0,0,0,780.667,61.577Z" transform="translate(-3.724 -16.736)" fill="#fff"/><path d="M512.362,27.586c77.525,1.921,141.369,6.654,190.08,13.908l-1.427.253C653.076,34.445,589.715,29.634,512.362,27.586Z" transform="translate(-3.724 -16.736)" fill="#fff"/><path d="M705.223,157.295l12.759.273q-18.281,7.192-40.168,14.7h-15Q685.921,164.619,705.223,157.295Z" transform="translate(-3.724 -16.736)" fill="#fff"/><path d="M764.7,130.972l9.606.651q-14.2,8.007-33.589,16.52l-11.9-.256Q749.538,139.168,764.7,130.972Z" transform="translate(-3.724 -16.736)" fill="#fff"/><path d="M646.443,182.578q-28.227,8.919-61.431,18.229H567.144q34.156-9.31,63.25-18.229Z" transform="translate(-3.724 -16.736)" fill="#fff"/><path d="M807.8,88.529l6.541-.216c.484,4.459-.785,9.132-3.859,14.011l-7.821-.059C806.121,97.485,807.814,92.9,807.8,88.529Z" transform="translate(-3.724 -16.736)" fill="#fff"/><path d="M109.925,19.146h19.951V76.053q0,12.186,4.285,18.076t14.327,5.892q10.042,0,14.261-5.892t4.217-18.076V19.146h19.951V76.053a57.357,57.357,0,0,1-2.678,18.612,33.4,33.4,0,0,1-7.632,12.787,29.683,29.683,0,0,1-12.118,7.364,51.812,51.812,0,0,1-16.135,2.344,50.913,50.913,0,0,1-16.269-2.41,30.277,30.277,0,0,1-12.117-7.432,31.987,31.987,0,0,1-7.5-12.921,61.422,61.422,0,0,1-2.544-18.746Z" transform="translate(-3.724 -16.736)" fill="#b91797"/><path d="M247.169,117.16a49.8,49.8,0,0,1-19.147-3.482A38.916,38.916,0,0,1,213.7,103.636a45,45,0,0,1-9.038-15.8,64.581,64.581,0,0,1-3.147-20.888,64.581,64.581,0,0,1,3.147-20.888,44.5,44.5,0,0,1,9.1-15.8,39.583,39.583,0,0,1,14.394-10.042,54.019,54.019,0,0,1,38.161,0,38.354,38.354,0,0,1,14.26,10.042,44.849,44.849,0,0,1,8.9,15.8,65.882,65.882,0,0,1,3.08,20.888,67.214,67.214,0,0,1-3.013,20.888,43.985,43.985,0,0,1-8.837,15.8,38.3,38.3,0,0,1-14.26,10.042A50.183,50.183,0,0,1,247.169,117.16Zm-.133-17.139q12.584,0,18.746-8.57t6.159-24.5q0-15.8-6.159-24.436t-18.746-8.637q-12.588,0-18.745,8.637T222.13,66.948q0,15.936,6.161,24.5T247.036,100.021Z" transform="translate(-3.724 -16.736)" fill="#b91797"/><path d="M326.705,36.419H297.917V19.146h77.661V36.419H346.79V114.75H326.705Z" transform="translate(-3.724 -16.736)" fill="#b91797"/><path d="M384.863,97.525q.728,4.549,3.608,6.581t8.583,2.032a15.235,15.235,0,0,0,4.762-.636,8.336,8.336,0,0,0,3.063-1.695,5.95,5.95,0,0,0,1.638-2.484,9.229,9.229,0,0,0,.485-3,9.842,9.842,0,0,0-.3-2.453,5.041,5.041,0,0,0-1.183-2.151,7.569,7.569,0,0,0-2.426-1.695,15.944,15.944,0,0,0-3.973-1.152l-5.459-.968a32.621,32.621,0,0,1-5.7-1.453,14.233,14.233,0,0,1-4.215-2.333,8.93,8.93,0,0,1-2.609-3.543,13.419,13.419,0,0,1-.88-5.149,10.559,10.559,0,0,1,1.244-5.208,11.306,11.306,0,0,1,3.367-3.755,14.723,14.723,0,0,1,5.034-2.241,25.975,25.975,0,0,1,6.309-.727,23.465,23.465,0,0,1,7.187.94,13.474,13.474,0,0,1,4.7,2.517,10.721,10.721,0,0,1,2.76,3.609,21.073,21.073,0,0,1,1.426,4.155l-5.217,1.031a15.346,15.346,0,0,0-1.243-3.245,7.137,7.137,0,0,0-2-2.365,8.77,8.77,0,0,0-3.064-1.426,17.427,17.427,0,0,0-4.427-.485,19.269,19.269,0,0,0-4.974.545,9.132,9.132,0,0,0-3.215,1.482,5.256,5.256,0,0,0-1.729,2.239,7.391,7.391,0,0,0-.515,2.752A8.659,8.659,0,0,0,386.288,80a4.674,4.674,0,0,0,1.335,2.028,8.118,8.118,0,0,0,2.456,1.451,20.5,20.5,0,0,0,3.76,1.029l6.067,1.094q6.732,1.275,9.886,4.221t3.155,8.655a11.989,11.989,0,0,1-1,4.89,11.133,11.133,0,0,1-2.978,3.979,14.3,14.3,0,0,1-4.952,2.673,22.607,22.607,0,0,1-6.988.971,29.428,29.428,0,0,1-6.957-.762,15.6,15.6,0,0,1-5.44-2.407,12.355,12.355,0,0,1-3.707-4.2,15.354,15.354,0,0,1-1.7-6.093Z" transform="translate(-3.724 -16.736)" fill="#b91797"/><path d="M434.055,110.87a16.561,16.561,0,0,1-6.369-1.153,13.069,13.069,0,0,1-4.731-3.276,14.3,14.3,0,0,1-2.972-5.216,21.744,21.744,0,0,1-1.031-6.915,20.7,20.7,0,0,1,1.091-6.915,15.171,15.171,0,0,1,3.094-5.277,13.575,13.575,0,0,1,4.822-3.367,16.091,16.091,0,0,1,6.278-1.183,16.4,16.4,0,0,1,6.308,1.153,13.209,13.209,0,0,1,4.762,3.306,14.47,14.47,0,0,1,3,5.186,23.381,23.381,0,0,1-.03,13.83,15.084,15.084,0,0,1-3.033,5.277,13.234,13.234,0,0,1-4.823,3.367A16.486,16.486,0,0,1,434.055,110.87Zm.061-4.368a9.559,9.559,0,0,0,4.34-.91,8.084,8.084,0,0,0,2.983-2.548,11.043,11.043,0,0,0,1.718-3.912,21.547,21.547,0,0,0,.543-5,20.88,20.88,0,0,0-.543-4.913,10.749,10.749,0,0,0-1.718-3.852,8.2,8.2,0,0,0-2.983-2.517,9.559,9.559,0,0,0-4.34-.91,9.365,9.365,0,0,0-4.31.91,8.28,8.28,0,0,0-2.953,2.517,10.731,10.731,0,0,0-1.718,3.852,23.053,23.053,0,0,0,0,9.948,11.345,11.345,0,0,0,1.688,3.881,7.837,7.837,0,0,0,2.953,2.548A9.557,9.557,0,0,0,434.116,106.5Z" transform="translate(-3.724 -16.736)" fill="#b91797"/><path d="M456.559,66.589h5.277V109.9h-5.277Z" transform="translate(-3.724 -16.736)" fill="#b91797"/><path d="M469.9,78.539h5.277V98.313q0,4.368,1.426,6.187t4.64,1.82a9.328,9.328,0,0,0,6.369-2.548,10.1,10.1,0,0,0,2.3-2.82,8.2,8.2,0,0,0,.789-3.852V78.539h5.278V109.9h-5.217v-4.853a15.254,15.254,0,0,1-4.974,4.428,12.257,12.257,0,0,1-5.762,1.4q-5.339,0-7.735-2.882T469.9,99.345Z" transform="translate(-3.724 -16.736)" fill="#b91797"/><path d="M505.933,82.724h-4.852V78.539h4.852V69.986h5.277v8.553h8.31v4.185h-8.31V101.1a6.07,6.07,0,0,0,1.032,3.7A3.661,3.661,0,0,0,515.4,106.2a13.23,13.23,0,0,0,2.336-.182,11.765,11.765,0,0,0,1.85-.485l.91,4.064a18.66,18.66,0,0,1-2.639.7,18.121,18.121,0,0,1-3.366.273,10,10,0,0,1-4.307-.788,6.4,6.4,0,0,1-2.608-2.245,8.721,8.721,0,0,1-1.305-3.457,26.567,26.567,0,0,1-.333-4.368Z" transform="translate(-3.724 -16.736)" fill="#b91797"/><path d="M525.1,66.589h5.641v6.127H525.1Zm.182,11.95h5.277V109.9h-5.277Z" transform="translate(-3.724 -16.736)" fill="#b91797"/><path d="M552.88,110.87a16.568,16.568,0,0,1-6.369-1.153,13.069,13.069,0,0,1-4.731-3.276,14.316,14.316,0,0,1-2.972-5.216,21.773,21.773,0,0,1-1.031-6.915,20.674,20.674,0,0,1,1.092-6.915,15.153,15.153,0,0,1,3.093-5.277,13.57,13.57,0,0,1,4.823-3.367,16.086,16.086,0,0,1,6.277-1.183,16.4,16.4,0,0,1,6.309,1.153,13.214,13.214,0,0,1,4.761,3.306,14.47,14.47,0,0,1,3,5.186,23.36,23.36,0,0,1-.03,13.83,15.084,15.084,0,0,1-3.033,5.277,13.238,13.238,0,0,1-4.822,3.367A16.5,16.5,0,0,1,552.88,110.87Zm.061-4.368a9.557,9.557,0,0,0,4.34-.91,8.084,8.084,0,0,0,2.983-2.548,11.026,11.026,0,0,0,1.718-3.912,21.547,21.547,0,0,0,.543-5,20.88,20.88,0,0,0-.543-4.913,10.731,10.731,0,0,0-1.718-3.852,8.2,8.2,0,0,0-2.983-2.517,9.557,9.557,0,0,0-4.34-.91,9.365,9.365,0,0,0-4.31.91,8.28,8.28,0,0,0-2.953,2.517,10.731,10.731,0,0,0-1.718,3.852,23.053,23.053,0,0,0,0,9.948,11.345,11.345,0,0,0,1.688,3.881,7.845,7.845,0,0,0,2.953,2.548A9.557,9.557,0,0,0,552.941,106.5Z" transform="translate(-3.724 -16.736)" fill="#b91797"/><path d="M575.263,78.539h5.217v4.792a14,14,0,0,1,5.1-4.428,13.474,13.474,0,0,1,5.883-1.335q5.337,0,7.917,2.912t2.578,8.553V109.9h-5.278V90.064q0-4.368-1.577-6.157a6.14,6.14,0,0,0-4.852-1.789,10.507,10.507,0,0,0-3.489.606,8.63,8.63,0,0,0-3.124,1.942,10.118,10.118,0,0,0-2.3,2.82,8.2,8.2,0,0,0-.788,3.852V109.9h-5.278Z" transform="translate(-3.724 -16.736)" fill="#b91797"/><path d="M613.234,100.74a6.115,6.115,0,0,0,2.76,4.579,11.878,11.878,0,0,0,6.036,1.3q4,0,5.671-1.365a4.433,4.433,0,0,0,1.668-3.61,6.886,6.886,0,0,0-.212-1.728,3.289,3.289,0,0,0-.82-1.456,5.274,5.274,0,0,0-1.7-1.122,12.371,12.371,0,0,0-2.85-.789l-4-.606a29.5,29.5,0,0,1-4.67-1.092,11.642,11.642,0,0,1-3.4-1.729,6.686,6.686,0,0,1-2.092-2.608,9.034,9.034,0,0,1-.7-3.73,7.873,7.873,0,0,1,.941-3.883,8.614,8.614,0,0,1,2.608-2.881,12.615,12.615,0,0,1,3.942-1.819,18.272,18.272,0,0,1,4.944-.638,20.473,20.473,0,0,1,5.672.668,10.923,10.923,0,0,1,3.73,1.819,8.047,8.047,0,0,1,2.244,2.73,15.642,15.642,0,0,1,1.213,3.336l-4.792.789a12.861,12.861,0,0,0-.97-2.244A4.818,4.818,0,0,0,627,83.058a6.736,6.736,0,0,0-2.213-.971,13.437,13.437,0,0,0-3.246-.333,14.213,14.213,0,0,0-3.639.394,6.794,6.794,0,0,0-2.335,1.061,3.87,3.87,0,0,0-1.244,1.487,4.2,4.2,0,0,0-.364,1.728,5.624,5.624,0,0,0,.243,1.729,2.915,2.915,0,0,0,.91,1.335,5.835,5.835,0,0,0,1.819,1,16.591,16.591,0,0,0,2.973.728l4.549.728q5.519.91,7.916,3.155t2.4,6.55a8.483,8.483,0,0,1-.788,3.67,8.1,8.1,0,0,1-2.365,2.912,11.589,11.589,0,0,1-3.944,1.941,19.632,19.632,0,0,1-5.519.7,24.447,24.447,0,0,1-5.308-.546,13.665,13.665,0,0,1-4.337-1.729,9.144,9.144,0,0,1-3.033-3.124,10.488,10.488,0,0,1-1.334-4.731Z" transform="translate(-3.724 -16.736)" fill="#b91797"/><path d="M3.724,236.724a61.037,61.037,0,0,1,9.064-.686c6.125,0,10.485,1.421,13.376,4.115,2.94,2.7,4.654,6.517,4.654,11.858,0,5.389-1.665,9.8-4.752,12.837-3.087,3.086-8.183,4.752-14.6,4.752a68.775,68.775,0,0,1-7.741-.392Zm4.262,29.2a26.8,26.8,0,0,0,4.312.245c9.113,0,14.062-5.1,14.062-14.012.049-7.791-4.361-12.74-13.376-12.74a24.293,24.293,0,0,0-5,.441Z" transform="translate(-3.724 -16.736)" fill="#fff"/><path d="M41.005,238.929a2.671,2.671,0,0,1-5.341,0,2.627,2.627,0,0,1,2.7-2.695A2.559,2.559,0,0,1,41.005,238.929Zm-4.8,30.377V245.592h4.312v23.714Z" transform="translate(-3.724 -16.736)" fill="#fff"/><path d="M47.079,264.9a11.3,11.3,0,0,0,5.683,1.715c3.136,0,4.606-1.568,4.606-3.528,0-2.057-1.225-3.184-4.41-4.36-4.263-1.519-6.271-3.87-6.271-6.712,0-3.822,3.086-6.958,8.182-6.958a11.84,11.84,0,0,1,5.831,1.47l-1.078,3.136a9.233,9.233,0,0,0-4.851-1.372c-2.548,0-3.969,1.47-3.969,3.234,0,1.959,1.421,2.841,4.508,4.017,4.116,1.568,6.222,3.626,6.222,7.154,0,4.164-3.233,7.1-8.868,7.1A13.528,13.528,0,0,1,46,268.179Z" transform="translate(-3.724 -16.736)" fill="#fff"/><path d="M67.066,253.333c0-3.037-.1-5.487-.2-7.741h3.87l.2,4.067h.1a9.323,9.323,0,0,1,8.427-4.606c5.733,0,10.045,4.851,10.045,12.053,0,8.525-5.194,12.739-10.779,12.739a8.318,8.318,0,0,1-7.3-3.723h-.1v12.885H67.066Zm4.263,6.321a9.71,9.71,0,0,0,.2,1.764,6.653,6.653,0,0,0,6.468,5.046c4.556,0,7.2-3.723,7.2-9.162,0-4.753-2.5-8.819-7.055-8.819a6.881,6.881,0,0,0-6.517,5.34,7,7,0,0,0-.294,1.764Z" transform="translate(-3.724 -16.736)" fill="#fff"/><path d="M108.072,269.306l-.343-2.989h-.147a8.833,8.833,0,0,1-7.251,3.528c-4.8,0-7.252-3.381-7.252-6.81,0-5.733,5.1-8.868,14.258-8.82v-.489c0-1.96-.539-5.488-5.39-5.488A11.815,11.815,0,0,0,95.774,250l-.98-2.842a14.718,14.718,0,0,1,7.79-2.107c7.252,0,9.016,4.949,9.016,9.7v8.869a33.38,33.38,0,0,0,.392,5.683Zm-.637-12.1c-4.7-.1-10.044.735-10.044,5.341a3.815,3.815,0,0,0,4.067,4.115,5.9,5.9,0,0,0,5.732-3.968,4.506,4.506,0,0,0,.245-1.372Z" transform="translate(-3.724 -16.736)" fill="#fff"/><path d="M123.552,238.782v6.81h6.173v3.283h-6.173v12.788c0,2.94.832,4.606,3.233,4.606a9.592,9.592,0,0,0,2.5-.294l.2,3.233a10.556,10.556,0,0,1-3.822.588A5.973,5.973,0,0,1,121,267.983c-1.225-1.274-1.666-3.38-1.666-6.173V248.875h-3.675v-3.283h3.675v-5.683Z" transform="translate(-3.724 -16.736)" fill="#fff"/><path d="M151.184,268.424a15.883,15.883,0,0,1-6.811,1.372c-7.153,0-11.808-4.851-11.808-12.1,0-7.3,5-12.592,12.739-12.592a14.408,14.408,0,0,1,5.977,1.225l-.979,3.332a10,10,0,0,0-5-1.127c-5.439,0-8.378,4.017-8.378,8.966,0,5.488,3.527,8.868,8.231,8.868a12.25,12.25,0,0,0,5.292-1.176Z" transform="translate(-3.724 -16.736)" fill="#fff"/><path d="M156.227,234.519h4.312v14.8h.1a8,8,0,0,1,3.087-3.038,8.871,8.871,0,0,1,4.409-1.225c3.185,0,8.281,1.96,8.281,10.142v14.111H172.1V255.685c0-3.821-1.421-7.055-5.488-7.055a6.194,6.194,0,0,0-5.781,4.311,5.226,5.226,0,0,0-.294,2.059v14.306h-4.312Z" transform="translate(-3.724 -16.736)" fill="#fff"/><path d="M284.783,268.228a21.159,21.159,0,0,1-8.721,1.568c-9.31,0-16.316-5.879-16.316-16.708,0-10.338,7.006-17.344,17.246-17.344a17.7,17.7,0,0,1,7.84,1.47l-1.029,3.478a15.544,15.544,0,0,0-6.664-1.371c-7.741,0-12.886,4.948-12.886,13.62,0,8.085,4.655,13.278,12.69,13.278a17.065,17.065,0,0,0,6.958-1.371Z" transform="translate(-3.724 -16.736)" fill="#fff"/><path d="M310.9,257.253c0,8.77-6.076,12.592-11.809,12.592-6.418,0-11.367-4.7-11.367-12.2,0-7.937,5.194-12.592,11.76-12.592C306.289,245.053,310.9,250,310.9,257.253Zm-18.815.245c0,5.194,2.989,9.113,7.2,9.113,4.116,0,7.2-3.87,7.2-9.211,0-4.018-2.009-9.113-7.105-9.113S292.08,252.991,292.08,257.5Z" transform="translate(-3.724 -16.736)" fill="#fff"/><path d="M316.329,252.011c0-2.45-.049-4.459-.2-6.419h3.773l.2,3.822h.147a8.173,8.173,0,0,1,7.447-4.361,7.011,7.011,0,0,1,6.713,4.753h.1a9.767,9.767,0,0,1,2.645-3.087,8.093,8.093,0,0,1,5.243-1.666c3.136,0,7.791,2.058,7.791,10.289v13.964h-4.214V255.881c0-4.556-1.666-7.3-5.145-7.3a5.583,5.583,0,0,0-5.1,3.919,7.139,7.139,0,0,0-.342,2.156v14.65h-4.214V255.1c0-3.772-1.666-6.516-4.948-6.516A6.427,6.427,0,0,0,320.543,255v14.306h-4.214Z" transform="translate(-3.724 -16.736)" fill="#fff"/><path d="M357.187,253.333c0-3.037-.1-5.487-.2-7.741h3.871l.2,4.067h.1a9.321,9.321,0,0,1,8.427-4.606c5.732,0,10.044,4.851,10.044,12.053,0,8.525-5.193,12.739-10.779,12.739a8.316,8.316,0,0,1-7.3-3.723h-.1v12.885h-4.263Zm4.263,6.321a9.71,9.71,0,0,0,.2,1.764,6.651,6.651,0,0,0,6.467,5.046c4.557,0,7.2-3.723,7.2-9.162,0-4.753-2.5-8.819-7.055-8.819a6.88,6.88,0,0,0-6.516,5.34,7,7,0,0,0-.294,1.764Z" transform="translate(-3.724 -16.736)" fill="#fff"/><path d="M385.062,234.519h4.311v34.787h-4.311Z" transform="translate(-3.724 -16.736)" fill="#fff"/><path d="M401.424,238.929a2.671,2.671,0,0,1-5.341,0,2.627,2.627,0,0,1,2.695-2.695A2.559,2.559,0,0,1,401.424,238.929Zm-4.8,30.377V245.592h4.311v23.714Z" transform="translate(-3.724 -16.736)" fill="#fff"/><path d="M421.217,269.306l-.343-2.989h-.147a8.833,8.833,0,0,1-7.251,3.528c-4.8,0-7.252-3.381-7.252-6.81,0-5.733,5.1-8.868,14.258-8.82v-.489c0-1.96-.539-5.488-5.39-5.488A11.815,11.815,0,0,0,408.919,250l-.98-2.842a14.718,14.718,0,0,1,7.79-2.107c7.252,0,9.016,4.949,9.016,9.7v8.869a33.38,33.38,0,0,0,.392,5.683Zm-.637-12.1c-4.7-.1-10.044.735-10.044,5.341a3.815,3.815,0,0,0,4.067,4.115,5.9,5.9,0,0,0,5.732-3.968,4.506,4.506,0,0,0,.245-1.372Z" transform="translate(-3.724 -16.736)" fill="#fff"/><path d="M431.7,252.011c0-2.45-.049-4.459-.2-6.419h3.822l.244,3.92h.1a8.721,8.721,0,0,1,7.84-4.459c3.283,0,8.378,1.96,8.378,10.093v14.16h-4.312v-13.67c0-3.822-1.42-7.006-5.487-7.006a6.127,6.127,0,0,0-5.782,4.41,6.194,6.194,0,0,0-.294,2.008v14.258H431.7Z" transform="translate(-3.724 -16.736)" fill="#fff"/><path d="M475.792,268.424a15.883,15.883,0,0,1-6.811,1.372c-7.153,0-11.808-4.851-11.808-12.1,0-7.3,5-12.592,12.739-12.592a14.414,14.414,0,0,1,5.978,1.225l-.98,3.332a10,10,0,0,0-5-1.127c-5.438,0-8.378,4.017-8.378,8.966,0,5.488,3.528,8.868,8.231,8.868a12.25,12.25,0,0,0,5.292-1.176Z" transform="translate(-3.724 -16.736)" fill="#fff"/><path d="M482.942,258.233c.1,5.83,3.822,8.231,8.134,8.231a15.588,15.588,0,0,0,6.565-1.225l.735,3.087a19.207,19.207,0,0,1-7.888,1.47c-7.3,0-11.661-4.8-11.661-11.955s4.214-12.788,11.122-12.788c7.741,0,9.8,6.811,9.8,11.171a16.263,16.263,0,0,1-.147,2.009Zm12.641-3.087c.049-2.744-1.126-7.006-5.977-7.006-4.361,0-6.272,4.018-6.615,7.006Z" transform="translate(-3.724 -16.736)" fill="#fff"/><path d="M609.611,268.229a21.163,21.163,0,0,1-8.721,1.567c-9.309,0-16.316-5.879-16.316-16.707,0-10.338,7.007-17.345,17.246-17.345a17.7,17.7,0,0,1,7.84,1.47l-1.029,3.478a15.544,15.544,0,0,0-6.664-1.371c-7.741,0-12.885,4.949-12.885,13.62,0,8.085,4.654,13.279,12.689,13.279a17.064,17.064,0,0,0,6.958-1.372Z" transform="translate(-3.724 -16.736)" fill="#fff"/><path d="M627.589,269.307l-.343-2.99H627.1a8.829,8.829,0,0,1-7.251,3.529c-4.8,0-7.252-3.381-7.252-6.811,0-5.732,5.1-8.868,14.258-8.819v-.49c0-1.96-.539-5.488-5.39-5.488A11.815,11.815,0,0,0,615.291,250l-.98-2.842a14.728,14.728,0,0,1,7.791-2.106c7.251,0,9.015,4.948,9.015,9.7v8.868a33.4,33.4,0,0,0,.392,5.684Zm-.637-12.1c-4.7-.1-10.044.735-10.044,5.341a3.815,3.815,0,0,0,4.067,4.115,5.9,5.9,0,0,0,5.732-3.968,4.5,4.5,0,0,0,.245-1.372Z" transform="translate(-3.724 -16.736)" fill="#fff"/><path d="M638.071,252.991c0-2.793-.049-5.194-.2-7.4h3.772l.147,4.654h.2a7.112,7.112,0,0,1,6.565-5.193,4.709,4.709,0,0,1,1.225.146v4.067a6.477,6.477,0,0,0-1.47-.147c-3.038,0-5.193,2.3-5.782,5.536a12.256,12.256,0,0,0-.2,2.009v12.642h-4.262Z" transform="translate(-3.724 -16.736)" fill="#fff"/><path d="M654.286,252.991c0-2.793-.049-5.194-.2-7.4h3.773l.147,4.654h.2a7.113,7.113,0,0,1,6.565-5.193A4.709,4.709,0,0,1,666,245.2v4.067a6.477,6.477,0,0,0-1.47-.147c-3.037,0-5.193,2.3-5.781,5.536a12.148,12.148,0,0,0-.2,2.009v12.642h-4.263Z" transform="translate(-3.724 -16.736)" fill="#fff"/><path d="M675.3,238.929a2.671,2.671,0,0,1-5.341,0,2.627,2.627,0,0,1,2.7-2.695A2.559,2.559,0,0,1,675.3,238.929Zm-4.8,30.378V245.593h4.312v23.714Z" transform="translate(-3.724 -16.736)" fill="#fff"/><path d="M684.366,258.233c.1,5.83,3.822,8.232,8.133,8.232a15.566,15.566,0,0,0,6.565-1.226l.735,3.087a19.183,19.183,0,0,1-7.888,1.47c-7.3,0-11.661-4.8-11.661-11.954s4.214-12.788,11.122-12.788c7.741,0,9.8,6.81,9.8,11.171a16.26,16.26,0,0,1-.147,2.008Zm12.641-3.087c.049-2.744-1.127-7-5.978-7-4.361,0-6.271,4.017-6.614,7Z" transform="translate(-3.724 -16.736)" fill="#fff"/><path d="M706.508,252.991c0-2.793-.049-5.194-.2-7.4h3.773l.147,4.654h.2a7.114,7.114,0,0,1,6.566-5.193,4.7,4.7,0,0,1,1.224.146v4.067a6.474,6.474,0,0,0-1.469-.147c-3.038,0-5.194,2.3-5.782,5.536a12.148,12.148,0,0,0-.2,2.009v12.642h-4.263Z" transform="translate(-3.724 -16.736)" fill="#fff"/><path d="M732.472,264.113a15.107,15.107,0,0,0,7.644,2.156c4.36,0,6.908-2.3,6.908-5.635,0-3.086-1.764-4.851-6.223-6.566-5.389-1.91-8.721-4.7-8.721-9.358,0-5.145,4.263-8.966,10.681-8.966a15.006,15.006,0,0,1,7.3,1.617l-1.176,3.479a13.151,13.151,0,0,0-6.272-1.569c-4.507,0-6.222,2.7-6.222,4.95,0,3.087,2.009,4.6,6.566,6.369,5.585,2.156,8.427,4.85,8.427,9.7,0,5.1-3.773,9.5-11.563,9.5a17.067,17.067,0,0,1-8.428-2.107Z" transform="translate(-3.724 -16.736)" fill="#fff"/><path d="M759.76,258.233c.1,5.83,3.822,8.232,8.133,8.232a15.566,15.566,0,0,0,6.565-1.226l.735,3.087a19.183,19.183,0,0,1-7.888,1.47c-7.3,0-11.661-4.8-11.661-11.954s4.214-12.788,11.122-12.788c7.741,0,9.8,6.81,9.8,11.171a16.26,16.26,0,0,1-.147,2.008Zm12.641-3.087c.049-2.744-1.127-7-5.978-7-4.361,0-6.271,4.017-6.614,7Z" transform="translate(-3.724 -16.736)" fill="#fff"/><path d="M781.9,252.991c0-2.793-.048-5.194-.2-7.4h3.772l.147,4.654h.2a7.114,7.114,0,0,1,6.566-5.193,4.706,4.706,0,0,1,1.224.146v4.067a6.474,6.474,0,0,0-1.469-.147c-3.038,0-5.194,2.3-5.782,5.536a12.148,12.148,0,0,0-.2,2.009v12.642H781.9Z" transform="translate(-3.724 -16.736)" fill="#fff"/><path d="M800.812,245.593l4.655,13.326A60.989,60.989,0,0,1,807.378,265h.147c.539-1.96,1.225-3.92,2.009-6.076l4.605-13.326h4.508l-9.309,23.714h-4.116l-9.015-23.714Z" transform="translate(-3.724 -16.736)" fill="#fff"/><path d="M827.512,238.929a2.671,2.671,0,0,1-5.341,0,2.627,2.627,0,0,1,2.695-2.695A2.559,2.559,0,0,1,827.512,238.929Zm-4.8,30.378V245.593h4.311v23.714Z" transform="translate(-3.724 -16.736)" fill="#fff"/><path d="M851.077,268.425a15.884,15.884,0,0,1-6.81,1.371c-7.154,0-11.809-4.851-11.809-12.1,0-7.3,5-12.591,12.739-12.591a14.416,14.416,0,0,1,5.978,1.224l-.98,3.332a10,10,0,0,0-5-1.127c-5.438,0-8.378,4.018-8.378,8.966,0,5.488,3.528,8.868,8.231,8.868a12.25,12.25,0,0,0,5.292-1.176Z" transform="translate(-3.724 -16.736)" fill="#fff"/><path d="M858.228,258.233c.1,5.83,3.822,8.232,8.133,8.232a15.575,15.575,0,0,0,6.566-1.226l.735,3.087a19.192,19.192,0,0,1-7.889,1.47c-7.3,0-11.661-4.8-11.661-11.954s4.214-12.788,11.122-12.788c7.742,0,9.8,6.81,9.8,11.171a16.26,16.26,0,0,1-.147,2.008Zm12.641-3.087c.049-2.744-1.127-7-5.977-7-4.361,0-6.272,4.017-6.615,7Z" transform="translate(-3.724 -16.736)" fill="#fff"/><path d="M879.783,264.9a11.3,11.3,0,0,0,5.683,1.715c3.136,0,4.606-1.567,4.606-3.527,0-2.058-1.225-3.185-4.41-4.36-4.263-1.52-6.271-3.871-6.271-6.713,0-3.822,3.087-6.957,8.182-6.957a11.838,11.838,0,0,1,5.831,1.469l-1.078,3.136a9.23,9.23,0,0,0-4.851-1.372c-2.548,0-3.969,1.47-3.969,3.234,0,1.959,1.421,2.841,4.508,4.017,4.116,1.568,6.222,3.626,6.222,7.154,0,4.164-3.233,7.1-8.868,7.1a13.532,13.532,0,0,1-6.663-1.616Z" transform="translate(-3.724 -16.736)" fill="#fff"/><circle cx="212.877" cy="238.191" r="10" fill="#fff"/><circle cx="540.32" cy="238.191" r="10" fill="#fff"/></g></g></svg>