<svg xmlns="http://www.w3.org/2000/svg" viewBox="0 0 754.764 182.804"><g id="Layer_2" data-name="Layer 2"><g id="Layer_1-2" data-name="Layer 1"><path d="M7.9,19.146H27.851V76.053q0,12.186,4.285,18.076t14.327,5.892q10.041,0,14.26-5.892T64.94,76.053V19.146H84.892V76.053a57.328,57.328,0,0,1-2.679,18.612,33.373,33.373,0,0,1-7.632,12.787,29.685,29.685,0,0,1-12.117,7.364,51.8,51.8,0,0,1-16.135,2.344,50.9,50.9,0,0,1-16.268-2.41,30.285,30.285,0,0,1-12.119-7.432,31.974,31.974,0,0,1-7.5-12.921A61.391,61.391,0,0,1,7.9,75.651Z" transform="translate(-7.9 -16.736)" fill="#b91797"/><path d="M145.145,117.16A49.8,49.8,0,0,1,126,113.678a38.9,38.9,0,0,1-14.327-10.042,45.012,45.012,0,0,1-9.038-15.8,64.554,64.554,0,0,1-3.147-20.888,64.554,64.554,0,0,1,3.147-20.888,44.512,44.512,0,0,1,9.1-15.8,39.586,39.586,0,0,1,14.395-10.042,49.433,49.433,0,0,1,19.014-3.482,49.81,49.81,0,0,1,19.147,3.482,38.362,38.362,0,0,1,14.26,10.042,44.849,44.849,0,0,1,8.9,15.8,65.911,65.911,0,0,1,3.079,20.888,67.214,67.214,0,0,1-3.013,20.888,43.984,43.984,0,0,1-8.836,15.8,38.3,38.3,0,0,1-14.26,10.042A50.185,50.185,0,0,1,145.145,117.16Zm-.134-17.139q12.582,0,18.745-8.57t6.159-24.5q0-15.8-6.159-24.436t-18.745-8.637q-12.588,0-18.746,8.637t-6.16,24.436q0,15.936,6.16,24.5T145.011,100.021Z" transform="translate(-7.9 -16.736)" fill="#b91797"/><path d="M224.68,36.419H195.892V19.146h77.66V36.419H244.765V114.75H224.68Z" transform="translate(-7.9 -16.736)" fill="#b91797"/><path d="M206.669,199.54h19.064C714.9,101.389,709.377,43.21,375.377,26.319h0C708.137,43.772,705.529,101.37,206.669,199.54Z" transform="translate(-7.9 -16.736)" fill="#b91797"/><path d="M644.466,199.54h15.478C873.684,101.925,742.32,27.164,372.988,26.32,741.083,27.728,867.905,101.905,644.466,199.54Z" transform="translate(-7.9 -16.736)" fill="#b91797"/><path d="M620.424,52.857l2.612-.341q7.451,2.13,13.873,4.415l-3.069.374Q627.666,55,620.424,52.857Z" transform="translate(-7.9 -16.736)" fill="#b91797"/><path d="M656.789,108.28l8.382.207a102.615,102.615,0,0,1-16.861,13.675l-9.139-.521A115.253,115.253,0,0,0,656.789,108.28Z" transform="translate(-7.9 -16.736)" fill="#b91797"/><path d="M570.785,41.933l1.616-.257q8.2,1.332,15.765,2.766l-1.723.3Q578.936,43.289,570.785,41.933Z" transform="translate(-7.9 -16.736)" fill="#b91797"/><path d="M595.744,46.65l1.959-.31q8.943,1.872,16.891,3.9l-2.351.336Q604.51,48.535,595.744,46.65Z" transform="translate(-7.9 -16.736)" fill="#b91797"/><path d="M659.19,70.788l4.667-.355a32.04,32.04,0,0,1,8.875,9.735l-5.8.271A27.361,27.361,0,0,0,659.19,70.788Z" transform="translate(-7.9 -16.736)" fill="#b91797"/><path d="M641.292,60.311l3.416-.375a107.832,107.832,0,0,1,11.765,5.674l-4.085.373A94.09,94.09,0,0,0,641.292,60.311Z" transform="translate(-7.9 -16.736)" fill="#b91797"/><path d="M372.988,26.32c77.525,1.921,141.368,6.654,190.08,13.907l-1.427.253C513.7,33.179,450.34,28.368,372.988,26.32Z" transform="translate(-7.9 -16.736)" fill="#b91797"/><path d="M565.848,156.029l12.76.273q-18.28,7.193-40.168,14.7h-15Q546.546,163.352,565.848,156.029Z" transform="translate(-7.9 -16.736)" fill="#b91797"/><path d="M625.324,129.706l9.607.65q-14.2,8.008-33.589,16.521l-11.9-.256Q610.162,137.9,625.324,129.706Z" transform="translate(-7.9 -16.736)" fill="#b91797"/><path d="M507.069,181.312q-28.227,8.919-61.431,18.228H427.769q34.158-9.309,63.251-18.228Z" transform="translate(-7.9 -16.736)" fill="#b91797"/><path d="M668.423,87.263l6.541-.217c.484,4.459-.785,9.133-3.859,14.012L663.284,101C666.746,96.218,668.439,91.638,668.423,87.263Z" transform="translate(-7.9 -16.736)" fill="#b91797"/><path d="M282.838,101.847q.727,4.55,3.608,6.581t8.583,2.032a15.262,15.262,0,0,0,4.762-.635,8.351,8.351,0,0,0,3.063-1.7,5.954,5.954,0,0,0,1.638-2.483,9.24,9.24,0,0,0,.486-3,9.842,9.842,0,0,0-.3-2.453,5.041,5.041,0,0,0-1.183-2.151,7.569,7.569,0,0,0-2.426-1.695,15.987,15.987,0,0,0-3.973-1.152l-5.459-.968a32.533,32.533,0,0,1-5.7-1.453,14.233,14.233,0,0,1-4.215-2.333,8.923,8.923,0,0,1-2.609-3.543,13.439,13.439,0,0,1-.879-5.149,10.559,10.559,0,0,1,1.243-5.208,11.306,11.306,0,0,1,3.367-3.755,14.723,14.723,0,0,1,5.034-2.241,25.975,25.975,0,0,1,6.309-.727,23.465,23.465,0,0,1,7.187.94,13.474,13.474,0,0,1,4.7,2.517,10.721,10.721,0,0,1,2.76,3.609,21.082,21.082,0,0,1,1.426,4.156l-5.217,1.031a15.3,15.3,0,0,0-1.243-3.245,7.13,7.13,0,0,0-2-2.366,8.752,8.752,0,0,0-3.064-1.425,17.378,17.378,0,0,0-4.427-.486,19.269,19.269,0,0,0-4.974.545,9.133,9.133,0,0,0-3.215,1.483,5.261,5.261,0,0,0-1.729,2.238,7.4,7.4,0,0,0-.515,2.752,8.666,8.666,0,0,0,.394,2.754A4.676,4.676,0,0,0,285.6,86.35a8.14,8.14,0,0,0,2.456,1.452,20.5,20.5,0,0,0,3.76,1.028l6.067,1.094q6.732,1.275,9.887,4.222t3.154,8.654a11.989,11.989,0,0,1-1,4.89,11.133,11.133,0,0,1-2.978,3.979,14.3,14.3,0,0,1-4.952,2.673,22.607,22.607,0,0,1-6.988.971,29.483,29.483,0,0,1-6.957-.761,15.647,15.647,0,0,1-5.44-2.407,12.368,12.368,0,0,1-3.707-4.2,15.354,15.354,0,0,1-1.7-6.093Z" transform="translate(-7.9 -16.736)" fill="#b91797"/><path d="M332.03,115.192a16.568,16.568,0,0,1-6.369-1.153,13.067,13.067,0,0,1-4.731-3.275,14.32,14.32,0,0,1-2.972-5.217,21.768,21.768,0,0,1-1.031-6.915,20.674,20.674,0,0,1,1.092-6.915,15.153,15.153,0,0,1,3.093-5.277,13.555,13.555,0,0,1,4.823-3.366,16.065,16.065,0,0,1,6.277-1.183,16.4,16.4,0,0,1,6.309,1.152,13.214,13.214,0,0,1,4.761,3.306,14.487,14.487,0,0,1,3,5.186,23.381,23.381,0,0,1-.03,13.83,15.08,15.08,0,0,1-3.033,5.278,13.243,13.243,0,0,1-4.823,3.366A16.486,16.486,0,0,1,332.03,115.192Zm.061-4.368a9.57,9.57,0,0,0,4.34-.909,8.1,8.1,0,0,0,2.983-2.548,11.034,11.034,0,0,0,1.718-3.912,21.562,21.562,0,0,0,.543-5,20.886,20.886,0,0,0-.543-4.913,10.739,10.739,0,0,0-1.718-3.852,8.2,8.2,0,0,0-2.983-2.517,9.57,9.57,0,0,0-4.34-.91,9.377,9.377,0,0,0-4.31.91,8.28,8.28,0,0,0-2.953,2.517,10.739,10.739,0,0,0-1.718,3.852,23.053,23.053,0,0,0,0,9.948,11.359,11.359,0,0,0,1.688,3.882,7.862,7.862,0,0,0,2.953,2.548A9.57,9.57,0,0,0,332.091,110.824Z" transform="translate(-7.9 -16.736)" fill="#b91797"/><path d="M354.534,70.912h5.278v43.309h-5.278Z" transform="translate(-7.9 -16.736)" fill="#b91797"/><path d="M367.878,82.861h5.277v19.775q0,4.367,1.426,6.187t4.64,1.82a9.333,9.333,0,0,0,6.369-2.548,10.1,10.1,0,0,0,2.305-2.821,8.2,8.2,0,0,0,.789-3.852V82.861h5.277v31.36h-5.217v-4.852a15.257,15.257,0,0,1-4.973,4.427,12.252,12.252,0,0,1-5.763,1.4q-5.338,0-7.735-2.881t-2.4-8.644Z" transform="translate(-7.9 -16.736)" fill="#b91797"/><path d="M403.908,87.046h-4.852V82.861h4.852V74.309h5.278v8.552H417.5v4.185h-8.309v18.38a6.07,6.07,0,0,0,1.031,3.7,3.658,3.658,0,0,0,3.153,1.395,13.23,13.23,0,0,0,2.336-.182,11.657,11.657,0,0,0,1.85-.485l.91,4.064a18.526,18.526,0,0,1-2.639.7,18.121,18.121,0,0,1-3.366.273,10,10,0,0,1-4.307-.788,6.393,6.393,0,0,1-2.608-2.245,8.721,8.721,0,0,1-1.305-3.457,26.674,26.674,0,0,1-.333-4.367Z" transform="translate(-7.9 -16.736)" fill="#b91797"/><path d="M423.075,70.912h5.641v6.126h-5.641Zm.182,11.949h5.277v31.36h-5.277Z" transform="translate(-7.9 -16.736)" fill="#b91797"/><path d="M450.855,115.192a16.568,16.568,0,0,1-6.369-1.153,13.067,13.067,0,0,1-4.731-3.275,14.32,14.32,0,0,1-2.972-5.217,21.768,21.768,0,0,1-1.031-6.915,20.674,20.674,0,0,1,1.092-6.915,15.155,15.155,0,0,1,3.094-5.277,13.542,13.542,0,0,1,4.822-3.366,16.068,16.068,0,0,1,6.277-1.183,16.4,16.4,0,0,1,6.309,1.152,13.214,13.214,0,0,1,4.761,3.306,14.487,14.487,0,0,1,3,5.186,23.36,23.36,0,0,1-.03,13.83,15.08,15.08,0,0,1-3.033,5.278,13.248,13.248,0,0,1-4.822,3.366A16.5,16.5,0,0,1,450.855,115.192Zm.061-4.368a9.567,9.567,0,0,0,4.34-.909,8.1,8.1,0,0,0,2.983-2.548,11.034,11.034,0,0,0,1.718-3.912,21.562,21.562,0,0,0,.543-5,20.886,20.886,0,0,0-.543-4.913,10.739,10.739,0,0,0-1.718-3.852,8.2,8.2,0,0,0-2.983-2.517,9.567,9.567,0,0,0-4.34-.91,9.38,9.38,0,0,0-4.31.91,8.288,8.288,0,0,0-2.953,2.517,10.721,10.721,0,0,0-1.717,3.852,23.053,23.053,0,0,0,0,9.948,11.339,11.339,0,0,0,1.687,3.882,7.862,7.862,0,0,0,2.953,2.548A9.573,9.573,0,0,0,450.916,110.824Z" transform="translate(-7.9 -16.736)" fill="#b91797"/><path d="M473.238,82.861h5.217v4.792a14,14,0,0,1,5.1-4.428,13.474,13.474,0,0,1,5.884-1.334q5.335,0,7.916,2.911t2.578,8.553v20.866H494.65V94.386q0-4.367-1.577-6.157a6.14,6.14,0,0,0-4.852-1.789,10.507,10.507,0,0,0-3.489.606,8.644,8.644,0,0,0-3.124,1.942,10.118,10.118,0,0,0-2.3,2.82,8.2,8.2,0,0,0-.788,3.852v18.561h-5.278Z" transform="translate(-7.9 -16.736)" fill="#b91797"/><path d="M511.209,105.062a6.117,6.117,0,0,0,2.76,4.58,11.879,11.879,0,0,0,6.036,1.3q4,0,5.671-1.365a4.432,4.432,0,0,0,1.668-3.609,6.888,6.888,0,0,0-.212-1.729,3.289,3.289,0,0,0-.82-1.456,5.274,5.274,0,0,0-1.7-1.122,12.356,12.356,0,0,0-2.85-.789l-4-.606a29.394,29.394,0,0,1-4.67-1.092,11.642,11.642,0,0,1-3.4-1.729,6.686,6.686,0,0,1-2.092-2.608,9.034,9.034,0,0,1-.7-3.73,7.867,7.867,0,0,1,.941-3.882,8.627,8.627,0,0,1,2.608-2.882,12.632,12.632,0,0,1,3.943-1.819,18.26,18.26,0,0,1,4.943-.637,20.472,20.472,0,0,1,5.672.667,10.914,10.914,0,0,1,3.73,1.819,8.047,8.047,0,0,1,2.244,2.73,15.642,15.642,0,0,1,1.213,3.336l-4.792.789a12.972,12.972,0,0,0-.969-2.244,4.849,4.849,0,0,0-1.456-1.608,6.75,6.75,0,0,0-2.214-.97,13.373,13.373,0,0,0-3.245-.334,14.221,14.221,0,0,0-3.64.394,6.775,6.775,0,0,0-2.335,1.062,3.867,3.867,0,0,0-1.244,1.486,4.219,4.219,0,0,0-.363,1.729,5.665,5.665,0,0,0,.242,1.729,2.925,2.925,0,0,0,.91,1.334,5.856,5.856,0,0,0,1.819,1,16.765,16.765,0,0,0,2.973.728l4.549.728q5.518.909,7.916,3.154t2.395,6.551a8.489,8.489,0,0,1-.788,3.67,8.1,8.1,0,0,1-2.365,2.911,11.593,11.593,0,0,1-3.943,1.941,19.639,19.639,0,0,1-5.52.7,24.447,24.447,0,0,1-5.308-.546,13.619,13.619,0,0,1-4.337-1.729,9.153,9.153,0,0,1-3.033-3.124,10.484,10.484,0,0,1-1.334-4.731Z" transform="translate(-7.9 -16.736)" fill="#b91797"/></g></g></svg>