<svg xmlns="http://www.w3.org/2000/svg" viewBox="0 0 803.708 184.07"><g id="Layer_2" data-name="Layer 2"><g id="Layer_1-2" data-name="Layer 1"><path d="M217.451,200.807H720.512C919.706,103.218,781.531,27.586,410.336,27.586,741.237,45.883,731.813,102.608,217.451,200.807Z" transform="translate(-7.899 -16.736)" fill="none"/><path d="M244.017,200.807h19.065C752.243,102.655,746.726,44.477,412.726,27.585h0C745.485,45.038,742.877,102.636,244.017,200.807Z" transform="translate(-7.899 -16.736)" fill="#fff"/><path d="M681.815,200.807h15.477C911.033,103.191,779.669,28.43,410.336,27.586,778.431,28.994,905.254,103.171,681.815,200.807Z" transform="translate(-7.899 -16.736)" fill="#fff"/><path d="M657.773,54.123l2.611-.341q7.452,2.13,13.873,4.416l-3.069.374Q665.016,56.269,657.773,54.123Z" transform="translate(-7.899 -16.736)" fill="#fff"/><path d="M694.138,109.546l8.382.208a102.761,102.761,0,0,1-16.861,13.675l-9.139-.521A115.352,115.352,0,0,0,694.138,109.546Z" transform="translate(-7.899 -16.736)" fill="#fff"/><path d="M608.133,43.2l1.616-.257q8.205,1.332,15.766,2.766l-1.723.306C618.786,45.042,613.577,44.1,608.133,43.2Z" transform="translate(-7.899 -16.736)" fill="#fff"/><path d="M633.092,47.917l1.96-.311q8.943,1.872,16.891,3.9l-2.352.336Q641.859,49.8,633.092,47.917Z" transform="translate(-7.899 -16.736)" fill="#fff"/><path d="M696.539,72.055l4.666-.356a32.068,32.068,0,0,1,8.876,9.735l-5.8.272A27.372,27.372,0,0,0,696.539,72.055Z" transform="translate(-7.899 -16.736)" fill="#fff"/><path d="M678.641,61.577l3.416-.375a107.918,107.918,0,0,1,11.765,5.675l-4.086.373A93.918,93.918,0,0,0,678.641,61.577Z" transform="translate(-7.899 -16.736)" fill="#fff"/><path d="M410.336,27.586c77.526,1.921,141.369,6.654,190.08,13.908l-1.426.253C551.05,34.445,487.689,29.634,410.336,27.586Z" transform="translate(-7.899 -16.736)" fill="#fff"/><path d="M603.2,157.295l12.759.273q-18.279,7.192-40.168,14.7h-15Q583.895,164.619,603.2,157.295Z" transform="translate(-7.899 -16.736)" fill="#fff"/><path d="M662.673,130.972l9.606.651q-14.2,8.007-33.589,16.52l-11.9-.256Q647.512,139.168,662.673,130.972Z" transform="translate(-7.899 -16.736)" fill="#fff"/><path d="M544.417,182.578q-28.227,8.919-61.431,18.229H465.118q34.158-9.31,63.251-18.229Z" transform="translate(-7.899 -16.736)" fill="#fff"/><path d="M705.772,88.529l6.54-.216c.484,4.459-.785,9.132-3.858,14.011l-7.821-.059C704.1,97.485,705.788,92.9,705.772,88.529Z" transform="translate(-7.899 -16.736)" fill="#fff"/><path d="M7.9,19.146H27.851V76.053q0,12.186,4.284,18.076t14.327,5.892q10.042,0,14.261-5.892T64.94,76.053V19.146H84.891V76.053a57.357,57.357,0,0,1-2.678,18.612,33.4,33.4,0,0,1-7.632,12.787,29.683,29.683,0,0,1-12.118,7.364,51.8,51.8,0,0,1-16.135,2.344,50.9,50.9,0,0,1-16.268-2.41,30.274,30.274,0,0,1-12.118-7.432,31.987,31.987,0,0,1-7.5-12.921A61.422,61.422,0,0,1,7.9,75.651Z" transform="translate(-7.899 -16.736)" fill="#fff"/><path d="M145.144,117.16A49.8,49.8,0,0,1,126,113.678a38.916,38.916,0,0,1-14.327-10.042,45.012,45.012,0,0,1-9.038-15.8,64.581,64.581,0,0,1-3.147-20.888,64.581,64.581,0,0,1,3.147-20.888,44.514,44.514,0,0,1,9.105-15.8A39.583,39.583,0,0,1,126.13,20.218a49.433,49.433,0,0,1,19.014-3.482,49.81,49.81,0,0,1,19.147,3.482,38.354,38.354,0,0,1,14.26,10.042,44.833,44.833,0,0,1,8.9,15.8,65.882,65.882,0,0,1,3.08,20.888,67.214,67.214,0,0,1-3.013,20.888,44,44,0,0,1-8.836,15.8,38.308,38.308,0,0,1-14.261,10.042A50.181,50.181,0,0,1,145.144,117.16Zm-.134-17.139q12.584,0,18.746-8.57t6.159-24.5q0-15.8-6.159-24.436T145.01,33.875q-12.588,0-18.745,8.637T120.1,66.948q0,15.936,6.161,24.5T145.01,100.021Z" transform="translate(-7.899 -16.736)" fill="#fff"/><path d="M224.679,36.419H195.891V19.146h77.661V36.419H244.764V114.75H224.679Z" transform="translate(-7.899 -16.736)" fill="#fff"/><path d="M282.837,97.525q.728,4.549,3.608,6.581t8.583,2.032a15.23,15.23,0,0,0,4.762-.636,8.349,8.349,0,0,0,3.064-1.695,5.958,5.958,0,0,0,1.637-2.484,9.229,9.229,0,0,0,.486-3,9.842,9.842,0,0,0-.3-2.453,5.041,5.041,0,0,0-1.183-2.151,7.569,7.569,0,0,0-2.426-1.695,15.944,15.944,0,0,0-3.973-1.152l-5.459-.968a32.621,32.621,0,0,1-5.7-1.453,14.233,14.233,0,0,1-4.215-2.333,8.94,8.94,0,0,1-2.609-3.543,13.439,13.439,0,0,1-.879-5.149,10.559,10.559,0,0,1,1.243-5.208,11.306,11.306,0,0,1,3.367-3.755,14.723,14.723,0,0,1,5.034-2.241,25.975,25.975,0,0,1,6.309-.727,23.465,23.465,0,0,1,7.187.94,13.474,13.474,0,0,1,4.7,2.517,10.721,10.721,0,0,1,2.76,3.609,21.073,21.073,0,0,1,1.426,4.155l-5.217,1.031a15.346,15.346,0,0,0-1.243-3.245,7.137,7.137,0,0,0-2-2.365,8.774,8.774,0,0,0-3.063-1.426,17.441,17.441,0,0,0-4.428-.485,19.269,19.269,0,0,0-4.974.545,9.132,9.132,0,0,0-3.215,1.482,5.264,5.264,0,0,0-1.729,2.239,7.391,7.391,0,0,0-.515,2.752A8.659,8.659,0,0,0,284.262,80a4.674,4.674,0,0,0,1.335,2.028,8.118,8.118,0,0,0,2.456,1.451,20.5,20.5,0,0,0,3.76,1.029L297.88,85.6q6.732,1.275,9.887,4.221t3.154,8.655a11.989,11.989,0,0,1-1,4.89,11.133,11.133,0,0,1-2.978,3.979,14.3,14.3,0,0,1-4.952,2.673,22.607,22.607,0,0,1-6.988.971,29.428,29.428,0,0,1-6.957-.762,15.6,15.6,0,0,1-5.439-2.407,12.347,12.347,0,0,1-3.708-4.2,15.354,15.354,0,0,1-1.7-6.093Z" transform="translate(-7.899 -16.736)" fill="#fff"/><path d="M332.029,110.87a16.568,16.568,0,0,1-6.369-1.153,13.069,13.069,0,0,1-4.731-3.276,14.316,14.316,0,0,1-2.972-5.216,21.773,21.773,0,0,1-1.031-6.915,20.674,20.674,0,0,1,1.092-6.915,15.153,15.153,0,0,1,3.093-5.277,13.57,13.57,0,0,1,4.823-3.367,16.083,16.083,0,0,1,6.277-1.183,16.4,16.4,0,0,1,6.309,1.153,13.214,13.214,0,0,1,4.761,3.306,14.47,14.47,0,0,1,3,5.186,23.381,23.381,0,0,1-.03,13.83,15.084,15.084,0,0,1-3.033,5.277,13.234,13.234,0,0,1-4.823,3.367A16.486,16.486,0,0,1,332.029,110.87Zm.061-4.368a9.557,9.557,0,0,0,4.34-.91,8.084,8.084,0,0,0,2.983-2.548,11.026,11.026,0,0,0,1.718-3.912,21.547,21.547,0,0,0,.543-5,20.88,20.88,0,0,0-.543-4.913,10.731,10.731,0,0,0-1.718-3.852,8.2,8.2,0,0,0-2.983-2.517,9.557,9.557,0,0,0-4.34-.91,9.365,9.365,0,0,0-4.31.91,8.28,8.28,0,0,0-2.953,2.517,10.731,10.731,0,0,0-1.718,3.852,23.053,23.053,0,0,0,0,9.948,11.345,11.345,0,0,0,1.688,3.881,7.845,7.845,0,0,0,2.953,2.548A9.557,9.557,0,0,0,332.09,106.5Z" transform="translate(-7.899 -16.736)" fill="#fff"/><path d="M354.533,66.589h5.278V109.9h-5.278Z" transform="translate(-7.899 -16.736)" fill="#fff"/><path d="M367.877,78.539h5.277V98.313q0,4.368,1.426,6.187t4.64,1.82a9.326,9.326,0,0,0,6.369-2.548,10.109,10.109,0,0,0,2.305-2.82,8.211,8.211,0,0,0,.789-3.852V78.539h5.277V109.9h-5.217v-4.853a15.261,15.261,0,0,1-4.973,4.428,12.264,12.264,0,0,1-5.763,1.4q-5.339,0-7.735-2.882t-2.395-8.643Z" transform="translate(-7.899 -16.736)" fill="#fff"/><path d="M403.907,82.724h-4.852V78.539h4.852V69.986h5.278v8.553h8.309v4.185h-8.309V101.1a6.07,6.07,0,0,0,1.031,3.7,3.661,3.661,0,0,0,3.153,1.395,13.23,13.23,0,0,0,2.336-.182,11.765,11.765,0,0,0,1.85-.485l.91,4.064a18.66,18.66,0,0,1-2.639.7,18.121,18.121,0,0,1-3.366.273,10,10,0,0,1-4.307-.788,6.407,6.407,0,0,1-2.608-2.245,8.721,8.721,0,0,1-1.305-3.457,26.678,26.678,0,0,1-.333-4.368Z" transform="translate(-7.899 -16.736)" fill="#fff"/><path d="M423.074,66.589h5.641v6.127h-5.641Zm.182,11.95h5.277V109.9h-5.277Z" transform="translate(-7.899 -16.736)" fill="#fff"/><path d="M450.854,110.87a16.568,16.568,0,0,1-6.369-1.153,13.069,13.069,0,0,1-4.731-3.276,14.316,14.316,0,0,1-2.972-5.216,21.773,21.773,0,0,1-1.031-6.915,20.674,20.674,0,0,1,1.092-6.915,15.155,15.155,0,0,1,3.094-5.277,13.566,13.566,0,0,1,4.822-3.367,16.086,16.086,0,0,1,6.277-1.183,16.4,16.4,0,0,1,6.309,1.153,13.214,13.214,0,0,1,4.761,3.306,14.47,14.47,0,0,1,3,5.186,23.36,23.36,0,0,1-.03,13.83,15.084,15.084,0,0,1-3.033,5.277,13.238,13.238,0,0,1-4.822,3.367A16.5,16.5,0,0,1,450.854,110.87Zm.061-4.368a9.554,9.554,0,0,0,4.34-.91,8.084,8.084,0,0,0,2.983-2.548,11.026,11.026,0,0,0,1.718-3.912,21.547,21.547,0,0,0,.543-5,20.88,20.88,0,0,0-.543-4.913,10.731,10.731,0,0,0-1.718-3.852,8.2,8.2,0,0,0-2.983-2.517,9.554,9.554,0,0,0-4.34-.91,9.368,9.368,0,0,0-4.31.91,8.288,8.288,0,0,0-2.953,2.517,10.713,10.713,0,0,0-1.717,3.852,23.053,23.053,0,0,0,0,9.948,11.325,11.325,0,0,0,1.687,3.881,7.845,7.845,0,0,0,2.953,2.548A9.559,9.559,0,0,0,450.915,106.5Z" transform="translate(-7.899 -16.736)" fill="#fff"/><path d="M473.237,78.539h5.217v4.792a14,14,0,0,1,5.095-4.428,13.475,13.475,0,0,1,5.884-1.335q5.336,0,7.916,2.912t2.578,8.553V109.9h-5.278V90.064q0-4.368-1.577-6.157a6.139,6.139,0,0,0-4.852-1.789,10.507,10.507,0,0,0-3.489.606,8.63,8.63,0,0,0-3.124,1.942,10.118,10.118,0,0,0-2.3,2.82,8.2,8.2,0,0,0-.788,3.852V109.9h-5.278Z" transform="translate(-7.899 -16.736)" fill="#fff"/><path d="M511.208,100.74a6.115,6.115,0,0,0,2.76,4.579,11.878,11.878,0,0,0,6.036,1.3q4,0,5.671-1.365a4.433,4.433,0,0,0,1.668-3.61,6.886,6.886,0,0,0-.212-1.728,3.3,3.3,0,0,0-.819-1.456,5.291,5.291,0,0,0-1.7-1.122,12.356,12.356,0,0,0-2.85-.789l-4-.606a29.5,29.5,0,0,1-4.67-1.092,11.642,11.642,0,0,1-3.4-1.729,6.686,6.686,0,0,1-2.092-2.608,9.034,9.034,0,0,1-.7-3.73,7.873,7.873,0,0,1,.941-3.883,8.614,8.614,0,0,1,2.608-2.881,12.62,12.62,0,0,1,3.943-1.819,18.259,18.259,0,0,1,4.943-.638,20.468,20.468,0,0,1,5.672.668,10.914,10.914,0,0,1,3.73,1.819,8.047,8.047,0,0,1,2.244,2.73,15.642,15.642,0,0,1,1.213,3.336l-4.792.789a12.938,12.938,0,0,0-.969-2.244,4.839,4.839,0,0,0-1.456-1.608,6.751,6.751,0,0,0-2.214-.971,13.422,13.422,0,0,0-3.245-.333,14.221,14.221,0,0,0-3.64.394,6.794,6.794,0,0,0-2.335,1.061A3.87,3.87,0,0,0,512.3,84.7a4.218,4.218,0,0,0-.363,1.728,5.656,5.656,0,0,0,.242,1.729,2.923,2.923,0,0,0,.91,1.335,5.835,5.835,0,0,0,1.819,1,16.591,16.591,0,0,0,2.973.728l4.549.728q5.519.91,7.916,3.155t2.395,6.55a8.469,8.469,0,0,1-.788,3.67,8.1,8.1,0,0,1-2.365,2.912,11.593,11.593,0,0,1-3.943,1.941,19.639,19.639,0,0,1-5.52.7,24.447,24.447,0,0,1-5.308-.546,13.665,13.665,0,0,1-4.337-1.729,9.153,9.153,0,0,1-3.033-3.124,10.488,10.488,0,0,1-1.334-4.731Z" transform="translate(-7.899 -16.736)" fill="#fff"/></g></g></svg>