<svg xmlns="http://www.w3.org/2000/svg" viewBox="0 0 556.942 173.222"><g id="Layer_2" data-name="Layer 2"><g id="Layer_1-2" data-name="Layer 1"><path d="M7.942,20.551H28V72.588q0,11.142,4.308,16.529t14.4,5.388q10.095,0,14.336-5.388t4.24-16.529V20.551H85.343V72.588a48.078,48.078,0,0,1-2.692,17.019A30.133,30.133,0,0,1,74.978,101.3,30.505,30.505,0,0,1,62.8,108.034a56.9,56.9,0,0,1-16.221,2.142,55.834,55.834,0,0,1-16.355-2.2,31.071,31.071,0,0,1-12.182-6.795A28.765,28.765,0,0,1,10.5,89.362,51.428,51.428,0,0,1,7.942,72.22Z" transform="translate(-7.942)" fill="#fff"/><path d="M145.917,110.176a54.5,54.5,0,0,1-19.25-3.183,39.356,39.356,0,0,1-14.4-9.183,40.416,40.416,0,0,1-9.086-14.448,54.153,54.153,0,0,1-3.163-19.1,54.153,54.153,0,0,1,3.163-19.1A39.178,39.178,0,0,1,126.8,21.531a54.112,54.112,0,0,1,19.115-3.184,54.531,54.531,0,0,1,19.25,3.184A38.764,38.764,0,0,1,179.5,30.714a40.186,40.186,0,0,1,8.952,14.448,55.242,55.242,0,0,1,3.1,19.1,56.334,56.334,0,0,1-3.029,19.1,39.4,39.4,0,0,1-8.884,14.448,38.717,38.717,0,0,1-14.336,9.183A54.922,54.922,0,0,1,145.917,110.176Zm-.135-15.671q12.653,0,18.846-7.837t6.192-22.406q0-14.445-6.192-22.345t-18.846-7.9q-12.654,0-18.845,7.9t-6.192,22.345q0,14.571,6.192,22.406T145.782,94.505Z" transform="translate(-7.942)" fill="#fff"/><path d="M225.876,36.346H196.935V20.551h78.074V36.346H246.068v71.626H225.876Z" transform="translate(-7.942)" fill="#fff"/><path d="M8.888,173.222H27.952C517.113,75.07,511.6,16.892,177.6,0h0C510.355,17.453,507.747,75.051,8.888,173.222Z" transform="translate(-7.942)" fill="#fff"/><path d="M446.685,173.222h15.477C675.9,75.606,544.539.845,175.207,0,543.3,1.409,670.124,75.586,446.685,173.222Z" transform="translate(-7.942)" fill="#fff"/><path d="M422.643,26.538l2.611-.341q7.452,2.13,13.873,4.416l-3.068.374Q429.885,28.686,422.643,26.538Z" transform="translate(-7.942)" fill="#fff"/><path d="M459.008,81.961l8.382.208a102.761,102.761,0,0,1-16.861,13.675l-9.139-.521A115.287,115.287,0,0,0,459.008,81.961Z" transform="translate(-7.942)" fill="#fff"/><path d="M373,15.614l1.615-.256q8.2,1.331,15.766,2.765l-1.723.306C383.656,17.457,378.447,16.517,373,15.614Z" transform="translate(-7.942)" fill="#fff"/><path d="M397.962,20.332l1.96-.311q8.943,1.872,16.891,3.9l-2.351.336Q406.728,22.216,397.962,20.332Z" transform="translate(-7.942)" fill="#fff"/><path d="M461.409,44.47l4.667-.356a32.077,32.077,0,0,1,8.875,9.735l-5.8.272A27.372,27.372,0,0,0,461.409,44.47Z" transform="translate(-7.942)" fill="#fff"/><path d="M443.511,33.992l3.416-.375a107.918,107.918,0,0,1,11.765,5.675l-4.086.373A94.069,94.069,0,0,0,443.511,33.992Z" transform="translate(-7.942)" fill="#fff"/><path d="M175.207,0c77.525,1.922,141.368,6.654,190.079,13.908l-1.426.253C315.92,6.86,252.559,2.049,175.207,0Z" transform="translate(-7.942)" fill="#fff"/><path d="M368.067,129.71l12.759.274q-18.279,7.191-40.168,14.7h-15Q348.765,137.034,368.067,129.71Z" transform="translate(-7.942)" fill="#fff"/><path d="M427.543,103.387l9.607.651q-14.2,8.008-33.59,16.52l-11.9-.256Q412.382,111.583,427.543,103.387Z" transform="translate(-7.942)" fill="#fff"/><path d="M309.287,154.993q-28.227,8.919-61.431,18.229H229.988q34.158-9.311,63.251-18.229Z" transform="translate(-7.942)" fill="#fff"/><path d="M470.642,60.944l6.541-.216c.483,4.459-.785,9.132-3.859,14.011L465.5,74.68C468.965,69.9,470.658,65.319,470.642,60.944Z" transform="translate(-7.942)" fill="#fff"/></g></g></svg>